<?xml version="1.0" encoding="UTF-8" standalone="no"?>
<!-- Created with Inkscape (http://www.inkscape.org/) -->

<svg
   xmlns:dc="http://purl.org/dc/elements/1.1/"
   xmlns:cc="http://creativecommons.org/ns#"
   xmlns:rdf="http://www.w3.org/1999/02/22-rdf-syntax-ns#"
   xmlns:svg="http://www.w3.org/2000/svg"
   xmlns="http://www.w3.org/2000/svg"
   xmlns:sodipodi="http://sodipodi.sourceforge.net/DTD/sodipodi-0.dtd"
   xmlns:inkscape="http://www.inkscape.org/namespaces/inkscape"
   width="744.09448819"
   height="1052.3622047"
   id="svg3246"
   version="1.1"
   inkscape:version="0.48.4 r9939"
   sodipodi:docname="LOGO2.svg">
  <defs
     id="defs3248">
    <filter
       inkscape:collect="always"
       id="filter4894"
       x="-0.043964178"
       width="1.0879284"
       y="-0.26847099"
       height="1.536942">
      <feGaussianBlur
         inkscape:collect="always"
         stdDeviation="6.4686792"
         id="feGaussianBlur4896" />
    </filter>
  </defs>
  <sodipodi:namedview
     id="base"
     pagecolor="#ffffff"
     bordercolor="#666666"
     borderopacity="1.0"
     inkscape:pageopacity="0.0"
     inkscape:pageshadow="2"
     inkscape:zoom="0.7"
     inkscape:cx="-41.237339"
     inkscape:cy="303.12681"
     inkscape:document-units="px"
     inkscape:current-layer="layer1"
     showgrid="false"
     inkscape:window-width="1600"
     inkscape:window-height="850"
     inkscape:window-x="0"
     inkscape:window-y="26"
     inkscape:window-maximized="1"
     showguides="true"
     inkscape:guide-bbox="true"
     inkscape:snap-smooth-nodes="true"
     inkscape:object-paths="true"
     inkscape:snap-page="true"
     inkscape:snap-grids="false"
     inkscape:snap-to-guides="false" />
  <metadata
     id="metadata3251">
    <rdf:RDF>
      <cc:Work
         rdf:about="">
        <dc:format>image/svg+xml</dc:format>
        <dc:type
           rdf:resource="http://purl.org/dc/dcmitype/StillImage" />
      </cc:Work>
    </rdf:RDF>
  </metadata>
  <g
     inkscape:label="Layer 1"
     inkscape:groupmode="layer"
     id="layer1"
     style="display:inline">
    <path
       style="fill:#698c90"
       inkscape:connector-curvature="0"
       id="path4037"
       d="m 487.76873,817.84929 c -14.93232,-5.44149 -19.25071,-7.06549 -28.13464,-10.58082 -35.82404,-14.1761 -62.71267,-27.17799 -82.62758,-39.95346 -2.76447,-1.77354 -5.19112,-3.43158 -5.39265,-3.68455 -0.78877,-0.99065 -3.98446,-10.54372 -5.46401,-16.33249 -2.16593,-8.47606 -2.93626,-19.63977 -1.82368,-26.42796 2.66047,-16.2319 12.62455,-27.41321 29.72526,-33.35651 4.17791,-1.45203 11.45613,-2.9119 15.79328,-3.16778 l 3.81638,-0.22516 17.45231,6.72775 c 9.59888,3.70038 17.58433,6.72776 17.74542,6.72776 0.16127,0 1.07915,-1.06589 2.03974,-2.36864 2.57956,-3.49832 10.70808,-13.43103 11.43259,-13.9707 0.34468,-0.25661 3.68509,-1.45429 7.42277,-2.66154 l 6.79608,-2.19499 7.35546,-0.13387 c 4.39047,-0.0799 7.87439,0.0252 8.64267,0.26139 0.70796,0.21739 11.29982,0.83062 23.53747,1.36272 12.23765,0.5321 37.72617,1.6474 56.63706,2.47844 18.91273,0.83101 38.27782,1.66886 43.02945,1.8619 8.32895,0.33826 8.77286,0.39613 12.22625,1.59473 6.329,2.19672 11.41898,6.04733 15.89147,12.02161 4.72405,6.31047 8.3661,14.42432 10.70735,23.85351 1.36517,5.49809 1.47065,6.88151 0.86805,11.38746 -2.45834,18.38142 -16.2644,34.34253 -37.72984,43.61758 l -3.24972,1.40445 -6.61991,-0.42921 c -3.64096,-0.23611 -16.79804,-1.11542 -29.23796,-1.95407 -12.43993,-0.8387 -23.52828,-1.57343 -24.6408,-1.6328 l -2.02275,-0.10789 -0.23,5.35466 c -0.12652,2.94507 -0.49999,6.44855 -0.82992,7.78607 -3.51885,14.26062 -16.24932,25.4404 -35.30659,31.00543 -7.31611,2.1364 -16.73624,3.88825 -20.61478,3.83394 -0.82197,-0.0115 -4.05985,-0.95577 -7.19511,-2.0983 z M 336.13589,637.51179 c -23.65222,-2.78565 -45.648,-14.25527 -64.98918,-33.88815 l -4.96494,-5.03951 -5.88437,-3.02168 C 257.061,593.90052 232.56731,579.53594 205.86699,563.641 179.16666,547.74605 129.59821,518.25638 95.718949,498.10753 61.837854,477.95984 33.811707,461.25672 33.436578,460.98937 32.167761,460.0813 23.666687,447.86509 22.218396,444.86838 20.366806,441.03789 16.36492,430.49876 14.654407,424.94903 8.9649576,406.51368 6.350091,389.3405 6.350091,370.48442 c 0,-23.40753 4.442699,-43.9465 13.949633,-64.37073 12.993423,-27.94371 33.927067,-51.58456 64.01826,-72.29946 12.641096,-8.7021 28.461226,-17.71209 34.019006,-19.3751 3.99328,-1.19485 13.21998,-1.2793 17.46923,-0.1599 1.51706,0.39965 19.30808,6.91249 39.5356,14.47289 20.22752,7.56041 38.76328,14.48476 41.19059,15.38702 13.24681,4.92438 34.05836,12.7158 78.33566,29.32827 l 49.2816,18.48966 7.53934,-0.10079 c 4.14664,-0.0554 9.87986,-0.2899 12.7404,-0.52101 11.74924,-0.94927 27.07839,1.89494 40.77132,7.56461 7.19364,2.97884 16.41519,7.66636 20.51659,10.42975 2.13297,1.437 5.28711,3.07679 8.20759,4.2669 15.20852,6.19764 28.66718,16.26862 40.24173,30.11273 l 2.01459,2.40964 3.86162,-1.88695 c 10.49771,-5.12977 25.40907,-9.97268 39.5356,-12.84049 17.0724,-3.46584 32.01097,-4.65512 54.24653,-4.31854 19.12788,0.28954 32.03525,1.29423 48.17828,3.75003 34.12971,5.19211 57.73301,14.40711 70.93239,27.69357 l 3.85058,3.87563 0.6393,9.49841 c 0.3516,5.22424 0.54821,9.77227 0.43688,10.10731 -0.11136,0.33498 -1.9421,3.33332 -4.0683,6.66312 -3.46398,5.42466 -4.07052,6.17393 -5.83215,7.20815 l -1.96615,1.15397 0.0239,2.16275 c 0.0132,1.1895 0.23071,6.8096 0.48337,12.48937 0.49451,11.11705 0.5404,10.55825 -1.40854,17.14411 -0.94907,3.20699 -1.16613,3.56583 -4.36326,7.2135 l -3.36464,3.83853 -5.79905,3.01996 -5.79904,3.01995 -0.008,3.15317 c -0.007,3.00485 -0.48707,8.70095 -1.47374,17.49599 -0.25604,2.28239 -0.72477,4.52125 -1.08577,5.186 -0.34942,0.64359 -2.06218,3.07178 -3.80609,5.39597 l -3.17083,4.2256 -6.16902,2.14573 c -30.83777,10.72577 -66.08882,16.16956 -93.51366,14.44115 -19.24373,-1.21264 -34.23747,-4.57327 -49.95094,-11.19623 -2.49291,-1.05062 -4.58209,-1.85133 -4.6424,-1.77931 -0.0603,0.072 -0.46946,1.85206 -0.90921,3.95556 -1.06879,5.11295 -4.08265,15.96762 -6.26575,22.5661 -17.83111,53.89853 -55.47489,97.84122 -99.056,115.63783 -6.71664,2.74293 -11.79044,4.37782 -20.85347,6.72011 -11.93608,3.0844 -16.4994,3.74322 -26.84744,3.87601 -4.95574,0.0637 -10.29874,-0.0359 -11.87355,-0.22149 z M 576.76982,491.4059 c 12.36563,-0.62125 25.0196,-2.3144 38.73018,-5.18255 8.81515,-1.8438 9.0211,-1.91299 9.34548,-3.14005 0.1509,-0.57096 0.26822,-1.92611 0.26071,-3.01143 -0.0542,-7.84879 -13.18797,-12.54407 -40.98095,-14.65113 -6.54011,-0.49577 -17.60714,-1.05904 -30.52516,-1.55366 -26.35646,-1.00916 -35.24885,-2.49087 -37.47976,-6.24507 -0.94183,-1.58486 -0.80053,-2.41587 0.5898,-3.46814 0.94753,-0.71718 1.10619,-0.71947 6.33489,-0.0922 22.35214,2.68173 48.78142,2.22455 74.68736,-1.29189 13.35089,-1.81214 36.49927,-6.72699 46.10035,-9.78795 0.95128,-0.30323 0.58792,-1.92615 -1.06474,-4.75533 -3.57045,-6.11273 -11.62052,-10.89942 -22.461,-13.35606 -6.49561,-1.47208 -11.1884,-1.96494 -20.73726,-2.17794 -8.43745,-0.18818 -12.1571,-0.0556 -25.01702,0.89144 -3.08419,0.22711 -3.17878,0.20772 -5.88437,-1.20675 -5.22017,-2.72916 -7.0686,-4.60348 -5.25401,-5.32789 0.34199,-0.13647 4.76891,-0.0473 9.83793,0.19804 29.06511,1.40702 57.6043,-2.60512 81.80744,-11.50182 6.79719,-2.49822 9.57351,-3.69265 17.91276,-7.70651 5.03371,-2.42276 5.73285,-2.87114 5.90938,-3.78885 0.15873,-0.82538 0.8038,-1.38678 3.11566,-2.71141 2.80545,-1.60739 3.01765,-1.82927 5.62141,-5.87789 1.4882,-2.31398 2.86488,-4.55147 3.05929,-4.97219 0.35994,-0.77892 -0.33236,-13.88771 -0.81734,-15.4769 -0.55861,-1.83034 -8.68901,-8.26646 -14.89886,-11.7948 -21.34408,-12.12564 -62.85242,-19.91553 -106.33791,-19.95607 -26.60801,-0.0249 -49.0315,3.30926 -69.75552,10.37084 -5.56918,1.89773 -13.58811,5.19402 -16.43578,6.75605 -2.14062,1.17428 -1.36741,1.01785 1.43689,-0.29068 31.23938,-14.57655 92.50597,-19.37356 141.44185,-11.07459 26.76947,4.53961 46.35044,12.30808 54.96737,21.80649 8.56212,9.43951 6.14475,20.26167 -6.42022,28.74041 -30.7142,20.72561 -112.90633,26.9332 -168.20469,12.70432 -2.0165,-0.5189 -3.71819,-0.88945 -3.78181,-0.82347 -0.0634,0.066 0.29922,2.15541 0.80586,4.64326 2.46452,12.10078 3.29186,21.49172 3.28723,37.31208 -0.004,13.35607 -0.25494,17.50823 -1.68348,27.84617 -0.38675,2.79885 -0.70318,5.39636 -0.70318,5.77233 0,0.47925 0.8522,1.09557 2.85024,2.06128 19.14737,9.25478 43.57743,13.46393 70.3366,12.11952 z" />
    <path
       style="fill:#987559"
       inkscape:connector-curvature="0"
       id="path4035"
       d="m 490.52703,818.34651 c -46.82855,-16.49658 -89.4939,-35.89386 -114.10895,-51.87524 l -4.51074,-2.92935 -1.43836,-3.82476 c -6.13409,-16.31146 -7.8115,-31.59827 -4.76193,-43.40339 3.39723,-13.15183 13.49617,-23.28668 28.1751,-28.27532 5.28122,-1.79488 12.27957,-3.14873 16.65239,-3.22159 l 3.86162,-0.0643 16.54133,6.43325 c 9.0976,3.53837 16.96317,6.52122 17.47879,6.62831 0.82182,0.17093 1.22909,-0.19827 3.29988,-2.99111 1.2993,-1.75236 4.28897,-5.51034 6.64382,-8.35099 l 4.28124,-5.16495 7.68977,-2.39844 7.68977,-2.39839 6.40991,0.01 c 3.52548,0.005 6.91818,0.18417 7.53935,0.39766 0.62121,0.21346 12.96253,0.90391 27.42521,1.53431 14.46268,0.63039 39.7011,1.73881 56.08539,2.4631 16.38429,0.7243 33.51333,1.42775 38.06452,1.56318 4.83474,0.14389 9.42161,0.48246 11.03319,0.81445 7.53861,1.55289 14.29718,6.29403 19.80164,13.89039 5.93953,8.19722 11.57271,24.45934 10.92507,31.53898 -1.34311,14.68326 -9.57387,27.9177 -23.37088,37.57981 -5.17972,3.62721 -13.87056,8.19378 -17.29159,9.08534 -0.76673,0.19988 -40.5764,-2.31001 -57.48293,-3.624 -2.79401,-0.21717 -5.23525,-0.2952 -5.42465,-0.17334 -0.18955,0.12182 -0.34512,1.71736 -0.34567,3.54559 -0.004,11.38517 -3.15049,19.19227 -10.7706,26.71978 -8.60626,8.50207 -23.54888,14.83434 -40.51021,17.16745 -5.2746,0.72555 -5.69975,0.69568 -9.58564,-0.67312 z m 4.52361,-5.73485 c 0.24273,-0.25244 0.44133,-0.69917 0.44133,-0.99276 0,-0.29355 -3.62397,-4.27379 -8.05313,-8.84476 -7.84754,-8.09855 -8.13183,-8.34601 -11.12514,-9.67856 -3.23394,-1.43983 -7.95272,-3.42656 -10.42747,-4.39006 -0.8091,-0.31504 -2.01459,-0.81364 -2.67882,-1.10792 -0.66427,-0.29431 -1.384,-0.53512 -1.59941,-0.53512 -0.2154,0 -0.91314,-0.24306 -1.55057,-0.54017 -0.63738,-0.29711 -2.79213,-1.11465 -4.7884,-1.81676 -2.47637,-0.87101 -3.85941,-1.58039 -4.3537,-2.23278 -0.76107,-1.00496 -3.267,-4.71096 -5.44083,-8.04654 -2.37563,-3.64518 -3.11618,-4.3499 -5.38347,-5.12288 -1.18562,-0.40424 -2.56944,-0.94254 -3.07513,-1.19619 -4.29265,-2.1535 -5.34963,-2.57548 -6.54268,-2.61243 l -1.36444,-0.0423 -0.12494,2.86857 c -0.16204,3.71954 0.63408,15.10398 1.17611,16.819 0.37906,1.19926 0.70612,1.4427 3.3621,2.50243 1.61821,0.64569 5.01091,2.21955 7.53935,3.49748 2.52844,1.27789 6.31467,2.96484 8.41391,3.74876 2.09918,0.78392 4.91272,1.90588 6.25215,2.49321 23.91922,10.48826 36.44557,15.63753 38.12703,15.6731 0.41467,0.009 0.95253,-0.19058 1.19526,-0.44302 z m -69.36201,-28.26002 c 0.0733,-0.22872 0.0103,-1.82077 -0.14008,-3.5379 -0.41305,-4.71746 -0.86055,-16.43577 -0.78008,-20.42729 0.0768,-3.80862 1.18389,-11.34653 2.36331,-16.09077 3.6678,-14.75401 10.88755,-26.51516 21.36724,-34.80762 2.2418,-1.77389 3.05741,-2.62406 2.7109,-2.8257 -0.2726,-0.15865 -5.02562,-2.03435 -10.56208,-4.16822 -5.53645,-2.13391 -13.87277,-5.35084 -18.5251,-7.14848 -4.85313,-1.87536 -9.2425,-3.34158 -10.29764,-3.43953 -3.62419,-0.33647 -13.29537,1.64927 -18.57254,3.81348 -12.29172,5.04065 -20.50409,14.64386 -22.05278,25.7873 -0.20169,1.45108 -0.36998,5.51034 -0.37399,9.02032 -0.007,5.78801 0.0965,6.83829 1.1074,11.28305 1.16099,5.10452 2.63668,9.90192 4.44859,14.46295 1.0327,2.59931 1.15738,2.74071 4.2783,4.85286 7.59415,5.13933 21.52649,12.7288 36.13003,19.68069 4.55119,2.16653 8.38522,3.94409 8.5202,3.95021 0.13482,0.006 0.30514,-0.1762 0.37847,-0.40493 z m 113.49478,-57.25667 c 0.50569,-10.46532 2.64848,-32.86121 3.96055,-41.3954 l 0.22007,-1.43134 -5.27938,-0.25901 c -2.90375,-0.14247 -8.83759,-0.41449 -13.18687,-0.60454 -4.34892,-0.19005 -16.54685,-0.72625 -27.10672,-1.19157 l -19.19959,-0.846 -6.69972,2.06648 -6.69973,2.06645 -3.7237,4.40765 c -4.31582,5.10835 -7.0046,8.71816 -6.71664,9.01726 0.18301,0.19036 25.14759,11.08492 63.15767,27.56276 7.98987,3.46359 15.76827,7.05248 17.28534,7.97539 1.51706,0.92284 2.93619,1.68622 3.15365,1.6964 0.25961,0.0122 0.546,-3.09986 0.83426,-9.06545 z M 335.25323,636.90709 c -23.7666,-2.99463 -44.50789,-14.11796 -65.45993,-35.10366 -3.49307,-3.4987 -4.12678,-3.95442 -8.82839,-6.34566 -2.78584,-1.41696 -22.85636,-13.16406 -44.59984,-26.10476 C 169.73144,541.59977 57.994626,475.14149 43.511722,466.5396 l -10.11376,-6.00488 -4.493819,-6.0806 C 23.063539,446.55139 20.360039,440.89151 15.875782,427.18013 11.264643,413.08052 8.6229287,400.05951 7.2551806,384.68703 6.4528468,375.669 6.7156207,359.47573 7.7981608,351.22495 14.046258,303.60285 39.687029,264.74327 85.482868,233.49497 c 10.798921,-7.36916 26.179562,-16.26671 31.171342,-18.0326 5.57691,-1.9727 13.68042,-2.24273 19.53758,-0.65101 1.51706,0.41227 13.35016,4.7121 26.29577,9.55502 12.94562,4.84291 32.06062,11.98756 42.47779,15.87658 10.41718,3.88902 28.45645,10.63054 40.08727,14.98121 11.63082,4.35067 38.85523,14.53294 60.49867,22.62767 l 39.35172,14.7173 7.53935,-0.23816 c 4.14664,-0.131 9.7493,-0.40631 12.45059,-0.61181 9.59851,-0.73027 21.70302,1.09594 33.52104,5.05748 8.18443,2.74342 21.78063,9.17101 27.03133,12.7789 3.27943,2.2534 4.40077,2.84712 8.45878,4.47804 10.99678,4.41989 22.11272,11.71486 31.17722,20.46017 3.63026,3.50241 7.55002,7.79831 9.34034,10.23698 0.87817,1.19604 1.50529,1.71758 1.90977,1.58823 0.33125,-0.10595 3.27991,-1.40897 6.55261,-2.89557 13.90513,-6.3166 30.53142,-11.00537 48.16724,-13.58364 10.75626,-1.57259 18.73326,-2.17266 31.9422,-2.40272 47.59719,-0.82909 93.10543,7.54052 116.77163,21.4768 6.17638,3.63693 12.8213,9.00425 15.49612,12.51615 l 1.16146,1.52509 0.60216,9.21538 c 0.70583,10.80112 1.05043,9.33203 -3.98814,17.00412 -2.60861,3.97202 -3.60244,5.1596 -5.29997,6.33381 -1.68117,1.16249 -2.09098,1.64828 -2.09734,2.48609 -0.004,0.57272 0.19297,6.31315 0.4385,12.75634 l 0.44644,11.71525 -1.43443,4.86777 -1.43446,4.86778 -3.2595,3.58181 c -3.14597,3.45701 -3.46398,3.69112 -9.12666,6.71743 -4.31876,2.30824 -5.90754,3.34555 -6.02118,3.93109 -0.0848,0.43763 -0.24243,3.7216 -0.35034,7.29764 -0.1079,3.57615 -0.5147,8.96218 -0.90399,11.96921 l -0.70781,5.46711 -2.62965,3.57531 c -4.78032,6.49942 -4.31324,6.1311 -10.49919,8.28023 -20.50151,7.12285 -42.56605,11.91413 -64.36029,13.97606 -9.65772,0.91366 -27.45646,0.91611 -36.22565,0.005 -16.0349,-1.66606 -31.28535,-5.50804 -43.51123,-10.96138 -1.96961,-0.87859 -3.80608,-1.50764 -4.08118,-1.39787 -0.27785,0.11088 -0.77526,1.52998 -1.1192,3.19302 -5.69718,27.54708 -19.08743,58.11725 -35.49084,81.02757 -20.93843,29.24374 -46.9683,49.85959 -76.14742,60.30884 -5.16316,1.84923 -19.76412,5.74594 -25.44327,6.7901 -8.74896,1.60881 -20.22311,1.98815 -28.51934,0.9428 z M 321.3584,527.05229 c 5.51108,-8.09587 11.83861,-16.03263 17.46554,-21.90593 9.41977,-9.8327 16.35487,-14.92002 24.27376,-17.8058 1.31137,-0.4779 2.42958,-1.01012 2.48486,-1.18265 0.1192,-0.37181 -0.47774,-1.14682 -16.62628,-21.58657 -24.46022,-30.96068 -22.7442,-28.924 -25.51242,-30.27643 -2.44834,-1.19616 -2.45522,-1.19708 -9.88832,-1.34662 -8.65517,-0.17411 -12.71318,0.35505 -18.78952,2.45018 -4.76855,1.64411 -8.33154,3.82744 -11.75219,7.20164 -4.60967,4.54688 -7.23631,9.45863 -9.15939,17.12613 -0.88012,3.50968 -0.99314,4.67386 -1.01472,10.45155 -0.0224,5.99952 0.0395,6.63519 0.80093,8.22438 0.72326,1.50933 9.63235,12.46949 28.91248,35.56913 3.07267,3.68134 7.70227,9.23221 10.28809,12.33486 2.58581,3.10284 4.81598,5.63311 4.95574,5.62278 0.1399,-0.0103 1.7424,-2.20474 3.56115,-4.87657 z m 257.49632,-35.27768 c 12.02765,-0.72418 25.66762,-2.63373 38.01303,-5.32177 9.21418,-2.00613 9.00786,-1.87456 9.00933,-5.74709 0,-2.17124 -0.16373,-2.82883 -1.10225,-4.4023 -4.8193,-8.07905 -22.89461,-11.55078 -68.77356,-13.2092 -27.63852,-0.99906 -36.90236,-2.35165 -39.07222,-5.70539 -1.26035,-1.94719 -0.56361,-2.50488 3.13321,-2.50775 2.55676,-0.004 10.76288,0.68945 14.05629,1.18438 3.1752,0.47714 29.36006,0.60936 36.26684,0.18313 18.54569,-1.14452 35.59822,-3.47923 53.11011,-7.27164 8.58161,-1.85837 20.98881,-5.25369 21.62836,-5.91843 0.54022,-0.56182 0.47928,-0.84237 -0.7351,-3.38427 -3.75165,-7.85262 -11.72461,-12.94988 -24.58048,-15.71518 -2.5283,-0.5438 -6.08628,-1.21023 -7.90676,-1.48091 -4.58466,-0.68168 -26.8912,-0.65728 -34.44636,0.0375 l -5.76006,0.52988 -3.06668,-1.63371 c -3.77335,-2.01018 -5.24003,-3.05859 -4.8421,-3.46168 0.16727,-0.16943 3.11762,-0.1502 6.55629,0.0428 7.33082,0.41136 21.73135,0.37732 29.05408,-0.0686 10.80995,-0.65836 27.83306,-3.24791 37.54595,-5.71152 12.6742,-3.21452 27.10819,-8.63669 37.91741,-14.24456 3.76783,-1.95441 4.52544,-2.49068 4.52544,-3.20316 0,-0.91989 0.53813,-1.40426 3.66994,-3.30321 2.13959,-1.29736 4.36693,-4.05693 7.04285,-8.72658 l 1.45153,-2.53279 -0.40944,-7.02915 c -0.22519,-3.86607 -0.5809,-7.49845 -0.7905,-8.07178 -0.45232,-1.23765 -5.50114,-5.85647 -9.23294,-8.44698 -16.58473,-11.51139 -44.90141,-19.19457 -83.01006,-22.52364 -7.91411,-0.69136 -12.30642,-0.82397 -28.13464,-0.84952 -19.69057,-0.0317 -22.45328,0.1139 -36.22565,1.91074 -17.35815,2.2646 -35.2801,7.28043 -49.46548,13.8441 -2.51593,1.16415 -4.09037,2.11299 -4.16429,2.50962 -0.17731,0.95087 0.56262,0.79517 4.35921,-0.91741 15.20962,-6.86047 36.21131,-11.52209 63.06205,-13.99748 10.63747,-0.98063 42.76098,-0.98284 53.3271,-0.004 29.66053,2.74916 52.16861,8.14559 67.67024,16.22502 6.80675,3.54754 12.90332,9.15495 15.03163,13.82613 1.02373,2.24701 1.1505,2.90449 1.1505,5.96739 0,3.06302 -0.12677,3.7205 -1.1505,5.9674 -3.23828,7.10755 -12.88898,13.93513 -26.80036,18.96087 -15.62264,5.64382 -33.84138,9.15227 -58.65981,11.29681 -8.95969,0.77417 -40.85223,0.64172 -50.38491,-0.20925 -9.10202,-0.81242 -19.56516,-2.1694 -27.03132,-3.50574 -5.33235,-0.95439 -17.3497,-3.66687 -18.66449,-4.21259 -0.8978,-0.3728 -0.8486,0.40516 0.4328,6.83982 3.9348,19.75987 4.34891,43.62523 1.13164,65.22748 -0.38881,2.61094 -0.63074,4.87543 -0.53765,5.03186 0.28068,0.47232 4.84578,2.61093 9.83866,4.60922 18.62256,7.45293 41.38551,10.60071 65.95643,9.12091 z m -313.22865,-28.44284 3.47516,-0.80351 0.8258,-3.44228 c 0.45416,-1.89326 0.83495,-4.3151 0.84617,-5.38221 0.0287,-2.74445 -2.37894,-17.05002 -3.53033,-20.97537 -0.30415,-1.03685 -0.52886,-0.52889 -2.47919,5.60404 -2.54481,8.00217 -6.10651,22.913 -6.10651,25.56394 0,0.71642 0.14711,0.75941 1.74692,0.51057 0.96081,-0.14947 3.31073,-0.63334 5.22201,-1.07526 z m 332.31975,-60.04875 c 36.90235,-2.88472 65.51142,-11.0004 76.51519,-21.70705 3.38899,-3.29703 4.39084,-5.19862 4.39268,-8.33913 0.004,-3.34892 -1.09173,-5.50116 -4.44748,-8.74914 -9.86404,-9.54814 -34.64496,-17.33344 -65.7946,-20.67131 -14.60353,-1.56475 -18.4817,-1.74872 -36.40954,-1.72734 -17.49533,0.021 -22.02151,0.24261 -36.04176,1.7657 -3.88184,0.42176 -4.10324,0.49493 -5.47209,1.81091 -4.09221,3.93453 -8.3992,11.63187 -10.01704,17.90295 -0.8301,3.21765 -0.96537,4.51436 -0.96875,9.28575 -0.006,8.48868 1.2864,13.68576 5.6854,22.86137 1.91581,3.99611 2.82266,5.50536 3.38462,5.63349 1.91459,0.43617 15.42514,1.72737 21.91449,2.0944 3.94437,0.22306 7.91632,0.46964 8.82656,0.54793 4.06647,0.34982 31.3225,-0.15253 38.43229,-0.7083 z" />
    <path
       style="fill:#864d25"
       inkscape:connector-curvature="0"
       id="path4031"
       d="m 488.68816,817.6963 c -51.34847,-18.692 -90.38759,-36.58997 -113.0277,-51.8217 -4.26506,-2.8691 -4.14737,-2.68341 -6.68023,-10.55978 -3.01162,-9.36569 -4.34597,-16.20666 -4.66189,-23.90476 -0.34023,-8.28214 0.77865,-14.94908 3.53801,-21.0817 4.73067,-10.51389 13.65101,-18.0938 26.21671,-22.27771 4.54862,-1.5146 11.64737,-2.99306 15.91244,-3.31415 l 3.30995,-0.24919 17.46261,6.72814 c 9.60439,3.70046 17.74762,6.72814 18.09627,6.72814 0.35729,0 1.58705,-1.293 2.81916,-2.96419 1.202,-1.6303 4.14701,-5.35352 6.54453,-8.27372 l 4.35921,-5.30954 7.17158,-2.32178 7.17157,-2.32178 6.96526,-0.13016 c 4.23306,-0.0791 7.33449,0.0245 7.90712,0.26395 0.52168,0.21831 18.33496,1.16869 39.92544,2.1302 21.44117,0.95485 46.43135,2.0682 55.53374,2.47412 9.10238,0.40596 20.43899,0.8455 25.19245,0.97684 9.54224,0.26365 11.73932,0.53031 15.83043,1.92153 11.86472,4.03436 21.31944,17.00489 25.93977,35.58558 1.16532,4.68648 1.29364,5.65491 1.0836,8.1781 -1.25833,15.11584 -9.40395,28.3323 -23.54556,38.2044 -4.0764,2.84554 -10.24101,6.23589 -14.64914,8.05647 l -2.88029,1.1895 -31.08749,-2.10843 c -17.09814,-1.15967 -31.2346,-2.01389 -31.41444,-1.89827 -0.17988,0.11558 -0.32839,1.53392 -0.33004,3.15179 -0.004,4.34034 -0.64331,9.49153 -1.52703,12.31229 -4.35958,13.91678 -17.32653,24.06578 -37.6379,29.4587 -5.60045,1.48703 -11.15419,2.48812 -15.81424,2.85059 -2.38641,0.18566 -2.95042,0.0634 -7.72323,-1.67398 z m 13.97538,-5.17376 c 3.43868,-0.55715 7.16238,-1.33729 8.27489,-1.73365 9.83793,-3.50501 20.03334,-9.61813 27.75326,-16.64077 2.5369,-2.30767 4.68838,-4.45891 4.78069,-4.78095 0.0925,-0.32182 0.52172,-2.73658 0.95374,-5.36614 0.79748,-4.85362 0.79252,-10.20676 -0.0114,-12.406 -0.18168,-0.49691 -0.68472,-3.8038 -1.11784,-7.34851 -1.25974,-10.30965 -2.03438,-13.68003 -4.33862,-18.87558 -1.31119,-2.95658 -1.82166,-3.47464 -6.1374,-6.22863 -3.3517,-2.13884 -5.34742,-3.15351 -10.66542,-5.42198 -1.6182,-0.69033 -8.56911,-3.70921 -15.44647,-6.70863 -6.87736,-2.99945 -13.99377,-6.09935 -15.81424,-6.88839 -1.82048,-0.78924 -4.96494,-2.15736 -6.98769,-3.04023 -6.0392,-2.63587 -11.45576,-4.95115 -17.06283,-7.29306 -5.98073,-2.49791 -5.76117,-2.4981 -10.27338,0.01 -5.11645,2.84382 -12.56386,9.92372 -16.13383,15.33729 -5.77147,8.75182 -9.66986,20.7501 -10.79966,33.23794 -0.19981,2.2088 -0.52091,5.47897 -0.71355,7.26705 -0.4762,4.41989 0.38708,18.4583 1.24061,20.17485 0.32687,0.6574 0.78045,1.31488 1.00792,1.4611 0.5646,0.36285 10.86254,4.8257 21.10649,9.14692 4.65233,1.96252 14.00296,5.92073 20.77918,8.79618 6.77622,2.87538 13.47888,5.70769 14.89481,6.29441 1.41593,0.58653 3.2364,1.34857 4.0455,1.69341 1.69426,0.72204 2.15173,0.69259 10.66542,-0.68677 z M 425.7438,783.03631 c -0.77843,-20.85834 -0.82142,-23.20521 -0.47954,-26.19082 1.53181,-13.37787 5.19663,-24.43755 11.21267,-33.83728 2.78555,-4.3522 8.12116,-10.15551 12.34283,-13.42453 1.80198,-1.39535 3.27631,-2.61182 3.27631,-2.70334 0,-0.26188 -2.82001,-1.45372 -8.33558,-3.52288 -2.79842,-1.04978 -10.93684,-4.16019 -18.08524,-6.91211 -13.77605,-5.30303 -13.84298,-5.31947 -18.63139,-4.60271 -15.50972,2.32201 -26.44546,8.75985 -32.22574,18.97043 -2.90166,5.12595 -3.96901,9.49153 -4.14407,16.95173 -0.2217,9.44027 1.12891,16.39407 5.61111,28.88918 0.59039,1.64591 1.06441,2.18616 3.4019,3.87716 1.49375,1.08054 5.36397,3.53343 8.60038,5.45067 10.25756,6.07717 35.64015,18.89891 36.96119,18.67057 0.39425,-0.0681 0.53548,-0.52938 0.49491,-1.61634 z m 193.30521,-14.29696 c 17.65016,-8.5055 28.91836,-21.72235 31.49351,-36.93878 0.66736,-3.94371 0.6553,-6.03815 -0.0533,-9.25822 -3.40164,-15.4593 -10.85078,-27.50156 -20.03039,-32.38119 -5.11352,-2.71818 -6.30768,-2.87236 -25.55177,-3.2992 -9.30466,-0.20639 -25.80958,-0.58328 -36.67764,-0.83759 -10.86807,-0.25427 -19.87704,-0.34071 -20.0201,-0.19204 -0.24387,0.25362 -1.22542,7.80175 -2.49516,19.18806 -1.15263,10.33604 -1.79043,20.5711 -1.82327,29.25943 l -0.0342,8.98819 1.55733,6.88457 c 0.85651,3.78651 1.74509,8.69139 1.97462,10.8998 0.60881,5.85763 0.41392,5.58798 4.25513,5.88822 3.4585,0.27038 23.84126,1.63356 43.51859,2.91038 6.57394,0.42661 12.36637,0.84122 12.87206,0.92135 0.50568,0.0801 2.24341,0.11221 3.86161,0.0712 2.70615,-0.0685 3.2801,-0.23729 7.15429,-2.10431 z m -79.89135,-34.65463 c 0.21522,-6.06952 0.93315,-17.40955 1.4284,-22.56227 0.65794,-6.84556 2.63358,-24.35264 2.94387,-26.08679 0.19062,-1.0655 0.10611,-1.25065 -0.64599,-1.41508 -0.47594,-0.10403 -15.12209,-0.81976 -32.54681,-1.59049 l -31.68145,-1.40128 -6.38307,1.99351 c -3.51061,1.09644 -6.73576,2.19166 -7.16716,2.43388 -1.1433,0.64191 -10.80113,12.64275 -10.80113,13.42147 0,0.24988 1.40479,0.92246 6.43603,3.08142 3.96349,1.7008 24.77099,10.75714 31.62849,13.76608 3.03412,1.33133 13.1295,5.71726 22.43415,9.74664 9.30466,4.02939 18.3243,8.17352 20.04364,9.20926 1.71934,1.03563 3.37431,1.84063 3.67773,1.78892 0.40789,-0.0695 0.57284,-0.69113 0.6329,-2.38516 z M 338.42712,637.24176 c -19.19518,-2.1146 -35.32498,-8.4466 -50.966,-20.00771 -6.57137,-4.85668 -14.58772,-12.02505 -19.28749,-17.24585 -1.32792,-1.47525 -2.68651,-2.35437 -6.7148,-4.34493 -2.7775,-1.37255 -26.85295,-15.46733 -53.49995,-31.32212 C 181.33211,548.48664 132.96259,519.72443 100.49559,500.40939 68.028579,481.09434 39.625464,464.1889 37.374693,462.85023 l -4.093683,-2.4148 -4.600473,-6.4103 C 23.580628,446.91911 22.043336,444.00005 18.660559,435.00039 12.714772,419.18155 9.2514529,404.3258 7.3787523,386.6095 6.6639854,379.84733 6.7805326,359.35196 7.5690565,353.14284 8.9482056,342.28281 11.043372,332.51896 13.909464,323.59541 27.426228,281.51156 58.652737,247.01986 107.81664,219.86788 c 8.91372,-4.92285 12.76872,-6.11426 19.83768,-6.13185 5.36581,-0.0132 9.19617,1.1073 28.63998,8.37814 10.07,3.76551 26.91474,10.06141 37.43195,13.99097 26.92099,10.0576 65.01124,24.2968 72.63518,27.1539 3.53982,1.32635 12.06296,4.51092 18.94031,7.07657 6.87736,2.56565 18.71046,6.98707 26.29578,9.82543 7.58532,2.83832 18.14261,6.77977 23.46098,8.75909 l 9.66949,3.59848 4.48977,-0.01 c 2.46934,-0.005 7.05499,-0.18197 10.19026,-0.39219 14.88414,-0.99792 24.2002,0.0314 37.14508,4.10397 8.51689,2.67959 23.07482,9.49 29.28614,13.70068 1.77171,1.20101 5.20546,2.991 7.80892,4.07069 12.72091,5.27588 23.01451,12.20443 32.93702,22.16985 2.70038,2.71202 5.85753,6.13568 7.01601,7.60821 1.15841,1.47254 2.3187,2.67734 2.57839,2.67734 0.25972,0 1.48709,-0.52369 2.72751,-1.16373 6.84941,-3.53423 19.15105,-8.05762 28.89704,-10.62595 20.9318,-5.51569 40.93682,-7.69389 66.19915,-7.207 17.64538,0.34006 31.44607,1.40564 45.97163,3.54961 28.06036,4.14184 48.19667,10.54334 63.07309,20.05284 4.06463,2.59809 9.43227,7.14466 11.69371,9.90422 l 1.57984,1.9281 0.53191,7.55812 c 0.81249,11.54504 0.85806,11.04858 -1.35226,14.73374 -3.85426,6.42637 -6.11827,9.36761 -8.05386,10.46302 l -1.82489,1.03295 -0.005,2.13843 c -0.004,1.17615 0.18969,6.95762 0.42764,12.84775 l 0.43269,10.70933 -1.39879,4.82303 -1.39879,4.82302 -3.2973,3.69572 c -3.2484,3.64079 -3.38407,3.7413 -9.141,6.76944 -4.47433,2.35341 -5.88253,3.27025 -6.00905,3.91158 -0.0908,0.46081 -0.2456,3.59165 -0.34387,6.95725 -0.0983,3.36579 -0.51911,8.774 -0.93513,12.01816 l -0.75644,5.89855 -1.73677,2.32465 c -0.95525,1.27858 -2.59773,3.45827 -3.64996,4.84368 l -1.91316,2.51918 -6.19256,2.15162 c -20.28269,7.0475 -42.80879,11.90954 -64.30145,13.87853 -9.53599,0.87361 -27.19571,0.87105 -35.67399,-0.005 -11.60986,-1.1999 -23.31718,-3.60954 -32.74026,-6.73885 -3.66284,-1.21635 -11.92945,-4.53081 -13.77237,-5.5218 -0.53544,-0.28797 -1.14704,-0.40704 -1.35917,-0.26464 -0.2121,0.14243 -0.84408,2.32431 -1.40442,4.84865 -9.06928,40.85993 -30.11399,79.44029 -57.74405,105.8694 -13.50941,12.9208 -27.50428,22.62767 -42.5918,29.54207 -12.53849,5.7467 -32.07312,11.13082 -45.01543,12.40753 -3.71965,0.36683 -13.78671,0.44409 -16.65754,0.12786 z m 42.66167,-46.4479 c 4.62549,-1.03881 5.94248,-1.51679 9.92988,-3.60473 3.98592,-2.08705 4.87042,-2.72885 6.65228,-4.82646 3.65857,-4.30707 6.85124,-9.79369 8.80338,-15.12885 1.641,-4.48453 1.87792,-5.57306 2.89452,-13.29869 l 1.10726,-8.41448 -0.87435,-5.11141 c -0.73286,-4.2845 -1.04631,-5.33631 -1.93724,-6.50209 -0.58461,-0.76484 -1.95188,-2.59541 -3.0384,-4.06802 -3.38226,-4.58398 -7.58421,-9.695 -13.52081,-16.44647 -3.1446,-3.57616 -6.31613,-7.19055 -7.048,-8.032 -0.7319,-0.84145 -4.04992,-4.62796 -7.37311,-8.41448 -6.88104,-7.83999 -6.56843,-7.66405 -11.23878,-6.33151 -8.96741,2.55858 -19.47212,11.02832 -31.10073,25.07629 -5.55154,6.70672 -15.04045,20.3504 -15.04119,21.62749 0,1.55852 7.64564,12.17422 17.28497,23.99694 1.51707,1.86067 4.65564,5.86642 6.97445,8.90213 4.21725,5.52028 8.54116,10.20676 14.28909,15.48646 2.45246,2.25278 3.65526,3.04895 6.06825,4.01676 6.33085,2.53915 9.70333,2.75001 17.16875,1.07346 z m -78.96823,-3.01051 c 7.22931,-2.32565 13.92131,-10.13562 18.3379,-21.40145 2.4882,-6.3472 2.50924,-6.71552 0.83473,-14.606 -1.4043,-6.61722 -1.4157,-6.64859 -3.7226,-10.23927 -1.27264,-1.98111 -2.31388,-3.88519 -2.31388,-4.23134 0,-1.40483 -6.72399,-10.7231 -11.1792,-15.49181 -2.03805,-2.18157 -2.61174,-2.54828 -6.23338,-3.98464 -9.26457,-3.67398 -25.82576,-7.09225 -38.45435,-7.93714 l -3.82815,-0.25614 0.24673,3.65039 c 0.77711,11.49723 3.65379,26.28988 7.04948,36.2507 5.02047,14.7261 10.40834,24.60584 18.23308,33.43148 2.93851,3.31457 5.31837,4.44207 12.10047,5.73331 1.82342,0.34718 6.48715,-0.13245 8.93027,-0.91836 z m -52.55478,-14.61059 c -0.14317,-0.26295 -0.54783,-0.82232 -0.89927,-1.24305 -2.60255,-3.11573 -7.17415,-11.62077 -9.66214,-17.97638 -5.75271,-14.69396 -8.25761,-28.78898 -8.66657,-48.7657 l -0.231,-11.2819 -3.12607,-1.00821 c -1.71934,-0.55451 -6.43603,-2.07811 -10.48153,-3.38579 -18.24523,-5.8974 -42.10267,-15.3526 -62.52143,-24.77987 -15.22727,-7.02991 -41.6834,-20.38904 -51.96266,-26.23786 -2.080525,-1.18407 -3.871911,-2.15284 -3.981139,-2.15284 -0.109137,0 -1.303094,-0.66398 -2.653262,-1.47548 -1.350169,-0.8115 -4.523609,-2.64352 -7.052049,-4.07108 -17.418101,-9.83461 -38.20059,-22.67051 -56.169983,-34.69058 -4.81562,-3.22156 -8.726519,-5.59716 -8.962997,-5.44532 -0.300817,0.19334 -0.349584,1.69154 -0.17207,5.28659 0.741246,15.01142 3.856836,27.03762 10.515,40.58837 3.505392,7.13356 7.624303,13.64062 9.467582,14.95673 0.755406,0.53932 7.662184,4.68533 15.348642,9.21308 7.686457,4.52775 15.464858,9.13506 17.285335,10.23774 1.820476,1.10291 11.419354,6.7901 21.330838,12.63816 9.911483,5.84806 18.600123,11.02105 19.308083,11.49532 0.70797,0.47446 3.43868,2.10484 6.06826,3.62308 2.62958,1.5182 7.01527,4.09441 9.74599,5.72452 2.73071,1.63031 9.59887,5.71802 15.26258,9.08419 5.6637,3.36594 11.45612,6.81075 12.87205,7.65488 1.41592,0.84424 8.03584,4.7603 14.71092,8.7021 6.67508,3.9418 14.86723,8.80498 18.20477,10.80648 3.33754,2.00153 8.63347,5.14315 11.76874,6.98133 3.13526,1.83815 10.41717,6.14257 16.18201,9.56573 5.76484,3.42293 11.72277,6.95112 13.23983,7.84038 1.51707,0.88937 5.32352,3.17015 8.45878,5.06857 5.39781,3.26811 7.37569,4.15829 6.7707,3.04746 z m 69.9909,-43.02857 c 2.93777,-4.5201 6.57689,-9.59403 9.8063,-13.67352 12.31746,-15.55951 23.58235,-25.19982 33.60159,-28.75608 1.66866,-0.59231 3.03402,-1.27097 3.03413,-1.50815 1.1e-4,-0.23717 -0.95143,-1.62319 -2.11452,-3.08004 -1.16308,-1.45685 -4.59716,-5.80407 -7.63129,-9.66096 -3.03412,-3.85651 -6.50958,-8.25231 -7.72323,-9.76806 -1.21365,-1.51583 -5.70931,-7.21503 -9.98982,-12.66532 -11.33918,-14.43618 -11.91364,-15.11469 -13.75435,-16.23726 -3.22835,-1.96921 -3.9668,-2.08698 -13.03314,-2.07795 -9.59704,0.01 -13.00519,0.55903 -18.85683,3.04011 -4.83585,2.05038 -6.94907,3.51706 -10.76104,7.46861 -2.7459,2.84643 -3.84838,4.32275 -5.08483,6.80884 -3.36869,6.77289 -4.61408,12.34327 -4.63431,20.73021 -0.0191,7.88398 -0.46692,7.05668 11.58963,21.41866 4.61592,5.49848 6.37388,7.61472 19.22461,23.13981 9.83241,11.87894 14.2387,17.02019 14.58735,17.02019 0.17094,0 0.95404,-0.98966 1.74023,-2.19924 z m 260.1259,-38.36235 c 11.41825,-0.72112 25.56096,-2.72778 37.34368,-5.29883 9.23184,-2.01419 8.9549,-1.85352 9.26236,-5.37761 0.17065,-1.95744 0.0583,-2.59636 -0.76412,-4.34455 -1.98392,-4.21718 -6.86485,-6.89222 -17.15625,-9.40356 -9.11121,-2.22318 -25.53926,-3.69502 -51.856,-4.64593 -25.86585,-0.9347 -36.06787,-2.25669 -38.72283,-5.01771 -2.26228,-2.35269 -0.13317,-2.91431 7.82989,-2.06537 18.45154,1.96711 41.29724,1.83351 61.66084,-0.36052 16.75059,-1.80498 34.35956,-5.03836 49.40663,-9.07234 3.13663,-0.84087 6.4478,-1.72718 7.35804,-1.96952 2.18339,-0.58132 2.28718,-1.45383 0.59616,-5.01197 -4.24116,-8.92469 -13.64622,-14.06747 -30.93744,-16.9173 -5.28233,-0.87059 -27.15159,-1.02557 -35.74755,-0.25331 l -6.32569,0.56824 -3.23648,-1.78781 c -4.87189,-2.69129 -4.99362,-2.95038 -1.21372,-2.58439 5.06386,0.49034 31.58986,0.34377 36.96119,-0.20424 22.14435,-2.25921 36.37055,-5.48088 55.00782,-12.45763 4.10766,-1.53778 14.23135,-6.15595 17.64869,-8.05112 2.05545,-1.13982 2.3948,-1.48225 2.55426,-2.57774 0.16105,-1.10646 0.53912,-1.47724 3.04564,-2.98672 2.9523,-1.77794 4.03374,-3.06753 7.94758,-9.47814 l 1.23178,-2.01756 -0.45137,-7.73558 -0.4514,-7.73558 -2.81089,-2.80848 c -14.67452,-14.66184 -46.05622,-24.37177 -91.25921,-28.23669 -10.06816,-0.86084 -42.72788,-0.98801 -51.12046,-0.19908 -24.35173,2.28932 -45.27287,7.57456 -62.37799,15.75802 -3.18415,1.5234 -3.71157,1.97981 -2.98908,2.58646 0.31904,0.26788 1.39305,-0.0479 3.58174,-1.05307 15.83263,-7.27126 37.2407,-12.02505 64.91195,-14.41362 9.74819,-0.84148 39.38482,-0.96498 48.72993,-0.20309 30.49795,2.48644 52.86371,7.53363 69.06779,15.58743 7.71956,3.83624 12.20161,7.26399 15.39829,11.77529 1.74391,2.46105 3.06322,6.27529 3.06322,8.85586 0,4.02097 -2.4935,9.02911 -6.29959,12.65231 -10.95007,10.424 -36.69529,18.80597 -68.54187,22.31595 -13.92352,1.53461 -18.42249,1.74968 -36.22564,1.73162 -18.21323,-0.0184 -25.32339,-0.40309 -38.98395,-2.10874 -10.37451,-1.29541 -25.69153,-4.21642 -32.04113,-6.11006 -1.54244,-0.46004 -1.87777,-0.0945 -1.42372,1.55205 0.70991,2.57426 2.19836,11.36299 2.91342,17.20263 2.11761,17.29404 1.8719,35.24671 -0.72484,52.95765 -0.58388,3.98196 -0.63562,5.04868 -0.26351,5.43231 0.63974,0.65939 7.05977,3.57504 11.49622,5.22118 11.13838,4.13265 22.34626,6.62678 35.4901,7.89737 8.37456,0.8097 20.31211,0.96973 29.42185,0.3944 z M 263.85377,464.01139 c 2.68169,-0.55076 5.06276,-1.19619 5.29115,-1.43428 0.22839,-0.23806 0.79667,-2.21649 1.2629,-4.39657 0.84661,-3.95901 0.84687,-3.96933 0.21253,-8.75717 -1.12895,-8.52119 -3.0502,-17.49484 -3.74577,-17.49484 -0.84488,0 -5.44267,15.88767 -7.52537,26.0034 -1.17459,5.70578 -1.31762,7.08078 -0.73636,7.08078 0.2007,0 2.55904,-0.45063 5.24077,-1.00143 z m 11.89231,-18.60058 c 6.08149,-8.85738 14.84957,-14.05408 26.88899,-15.93701 3.27774,-0.51264 14.98271,-0.53884 17.91129,-0.0401 3.14968,0.53639 7.84496,2.93245 9.01779,4.60195 2.02827,2.88697 3.48403,4.58628 3.92892,4.58628 0.79579,0 1.39938,-4.15714 1.38835,-9.56191 -0.009,-4.39427 -0.15885,-5.73293 -1.00634,-8.9878 -0.95728,-3.67648 -2.6825,-8.12877 -3.92745,-10.13601 -2.34283,-3.7771 -3.46582,-5.41892 -4.91198,-7.18098 -3.01077,-3.66822 -3.41301,-3.89476 -8.96778,-5.0529 -2.7826,-0.57998 -5.70379,-0.97535 -6.5151,-0.88183 -0.8091,0.0932 -4.5328,0.5832 -8.27489,1.08879 -3.74209,0.5056 -9.45177,1.2707 -12.68817,1.70018 -8.64708,1.14759 -8.47313,1.02519 -12.21595,8.60533 -3.59745,7.28618 -7.09214,15.68918 -7.09214,17.05309 0,0.53802 0.23394,1.74042 0.51989,2.67194 0.79906,2.60317 2.69772,11.21879 3.36538,15.2715 0.56552,3.43257 0.76254,4.20724 1.07003,4.20724 0.072,0 0.75133,-0.9036 1.5096,-2.008 z m 324.00808,-42.14887 c 34.16391,-3.02496 60.04631,-10.06486 72.60209,-19.74724 12.46309,-9.61048 7.37679,-19.85357 -14.31153,-28.81881 -11.09461,-4.58628 -28.59104,-8.61643 -46.52329,-10.71622 -14.78963,-1.73166 -19.54677,-1.96612 -39.53561,-1.94849 -18.47287,0.0165 -25.96073,0.36267 -35.90053,1.66064 -1.43612,0.18756 -3.02917,0.25786 -3.54015,0.15628 -0.73146,-0.14542 -1.27055,0.17162 -2.53477,1.49074 -3.38917,3.53626 -4.10802,4.5071 -6.22713,8.41141 -1.54181,2.84031 -2.30152,4.75227 -3.54357,8.9182 -1.13049,3.79164 -1.56763,12.25262 -0.87438,16.92304 0.45696,3.0787 2.61435,10.6118 3.55464,12.41211 0.29654,0.56775 0.78214,1.74845 1.07912,2.62383 0.71741,2.11463 3.01489,6.01252 3.80204,6.45084 0.34545,0.19227 3.7671,0.701 7.60334,1.13052 6.0072,0.67255 10.13104,1.01571 20.76704,1.72807 5.46474,0.36603 37.41356,-0.1287 43.58111,-0.67492 z" />
    <path
       style="fill:#664c2d"
       inkscape:connector-curvature="0"
       id="path4029"
       d="m 488.68816,817.6963 c -51.34847,-18.692 -90.38759,-36.58997 -113.0277,-51.8217 -4.26506,-2.8691 -4.14737,-2.68341 -6.68023,-10.55978 -3.01162,-9.36569 -4.34597,-16.20666 -4.66189,-23.90476 -0.34023,-8.28214 0.77865,-14.94908 3.53801,-21.0817 4.73067,-10.51389 13.65101,-18.0938 26.21671,-22.27771 4.54862,-1.5146 11.64737,-2.99306 15.91244,-3.31415 l 3.30995,-0.24919 17.46261,6.72814 c 9.60439,3.70046 17.74762,6.72814 18.09627,6.72814 0.35729,0 1.58705,-1.293 2.81916,-2.96419 1.202,-1.6303 4.14701,-5.35352 6.54453,-8.27372 l 4.35921,-5.30954 7.17158,-2.32178 7.17157,-2.32178 6.96526,-0.13016 c 4.23306,-0.0791 7.33449,0.0245 7.90712,0.26395 0.52168,0.21831 18.33496,1.16869 39.92544,2.1302 21.44117,0.95485 46.43135,2.0682 55.53374,2.47412 9.10238,0.40596 20.43899,0.8455 25.19245,0.97684 9.54224,0.26365 11.73932,0.53031 15.83043,1.92153 11.86472,4.03436 21.31944,17.00489 25.93977,35.58558 1.16532,4.68648 1.29364,5.65491 1.0836,8.1781 -1.25833,15.11584 -9.40395,28.3323 -23.54556,38.2044 -4.0764,2.84554 -10.24101,6.23589 -14.64914,8.05647 l -2.88029,1.1895 -31.08749,-2.10843 c -17.09814,-1.15967 -31.2346,-2.01389 -31.41444,-1.89827 -0.17988,0.11558 -0.32839,1.53392 -0.33004,3.15179 -0.004,4.34034 -0.64331,9.49153 -1.52703,12.31229 -4.35958,13.91678 -17.32653,24.06578 -37.6379,29.4587 -5.60045,1.48703 -11.15419,2.48812 -15.81424,2.85059 -2.38641,0.18566 -2.95042,0.0634 -7.72323,-1.67398 z m 13.97538,-5.17376 c 3.43868,-0.55715 7.16238,-1.33729 8.27489,-1.73365 9.83793,-3.50501 20.03334,-9.61813 27.75326,-16.64077 2.5369,-2.30767 4.68838,-4.45891 4.78069,-4.78095 0.0925,-0.32182 0.52172,-2.73658 0.95374,-5.36614 0.79748,-4.85362 0.79252,-10.20676 -0.0114,-12.406 -0.18168,-0.49691 -0.68472,-3.8038 -1.11784,-7.34851 -1.25974,-10.30965 -2.03438,-13.68003 -4.33862,-18.87558 -1.31119,-2.95658 -1.82166,-3.47464 -6.1374,-6.22863 -3.3517,-2.13884 -5.34742,-3.15351 -10.66542,-5.42198 -1.6182,-0.69033 -8.56911,-3.70921 -15.44647,-6.70863 -6.87736,-2.99945 -13.99377,-6.09935 -15.81424,-6.88839 -1.82048,-0.78924 -4.96494,-2.15736 -6.98769,-3.04023 -6.0392,-2.63587 -11.45576,-4.95115 -17.06283,-7.29306 -5.98073,-2.49791 -5.76117,-2.4981 -10.27338,0.01 -5.11645,2.84382 -12.56386,9.92372 -16.13383,15.33729 -5.77147,8.75182 -9.66986,20.7501 -10.79966,33.23794 -0.19981,2.2088 -0.52091,5.47897 -0.71355,7.26705 -0.4762,4.41989 0.38708,18.4583 1.24061,20.17485 0.32687,0.6574 0.78045,1.31488 1.00792,1.4611 0.5646,0.36285 10.86254,4.8257 21.10649,9.14692 4.65233,1.96252 14.00296,5.92073 20.77918,8.79618 6.77622,2.87538 13.47888,5.70769 14.89481,6.29441 1.41593,0.58653 3.2364,1.34857 4.0455,1.69341 1.69426,0.72204 2.15173,0.69259 10.66542,-0.68677 z M 425.7438,783.03631 c -0.77843,-20.85834 -0.82142,-23.20521 -0.47954,-26.19082 1.53181,-13.37787 5.19663,-24.43755 11.21267,-33.83728 2.78555,-4.3522 8.12116,-10.15551 12.34283,-13.42453 1.80198,-1.39535 3.27631,-2.61182 3.27631,-2.70334 0,-0.26188 -2.82001,-1.45372 -8.33558,-3.52288 -2.79842,-1.04978 -10.93684,-4.16019 -18.08524,-6.91211 -13.77605,-5.30303 -13.84298,-5.31947 -18.63139,-4.60271 -15.50972,2.32201 -26.44546,8.75985 -32.22574,18.97043 -2.90166,5.12595 -3.96901,9.49153 -4.14407,16.95173 -0.2217,9.44027 1.12891,16.39407 5.61111,28.88918 0.59039,1.64591 1.06441,2.18616 3.4019,3.87716 1.49375,1.08054 5.36397,3.53343 8.60038,5.45067 10.25756,6.07717 35.64015,18.89891 36.96119,18.67057 0.39425,-0.0681 0.53548,-0.52938 0.49491,-1.61634 z m 193.30521,-14.29696 c 17.65016,-8.5055 28.91836,-21.72235 31.49351,-36.93878 0.66736,-3.94371 0.6553,-6.03815 -0.0533,-9.25822 -3.40164,-15.4593 -10.85078,-27.50156 -20.03039,-32.38119 -5.11352,-2.71818 -6.30768,-2.87236 -25.55177,-3.2992 -9.30466,-0.20639 -25.80958,-0.58328 -36.67764,-0.83759 -10.86807,-0.25427 -19.87704,-0.34071 -20.0201,-0.19204 -0.24387,0.25362 -1.22542,7.80175 -2.49516,19.18806 -1.15263,10.33604 -1.79043,20.5711 -1.82327,29.25943 l -0.0342,8.98819 1.55733,6.88457 c 0.85651,3.78651 1.74509,8.69139 1.97462,10.8998 0.60881,5.85763 0.41392,5.58798 4.25513,5.88822 3.4585,0.27038 23.84126,1.63356 43.51859,2.91038 6.57394,0.42661 12.36637,0.84122 12.87206,0.92135 0.50568,0.0801 2.24341,0.11221 3.86161,0.0712 2.70615,-0.0685 3.2801,-0.23729 7.15429,-2.10431 z m -79.89135,-34.65463 c 0.21522,-6.06952 0.93315,-17.40955 1.4284,-22.56227 0.65794,-6.84556 2.63358,-24.35264 2.94387,-26.08679 0.19062,-1.0655 0.10611,-1.25065 -0.64599,-1.41508 -0.47594,-0.10403 -15.12209,-0.81976 -32.54681,-1.59049 l -31.68145,-1.40128 -6.38307,1.99351 c -3.51061,1.09644 -6.73576,2.19166 -7.16716,2.43388 -1.1433,0.64191 -10.80113,12.64275 -10.80113,13.42147 0,0.24988 1.40479,0.92246 6.43603,3.08142 3.96349,1.7008 24.77099,10.75714 31.62849,13.76608 3.03412,1.33133 13.1295,5.71726 22.43415,9.74664 9.30466,4.02939 18.3243,8.17352 20.04364,9.20926 1.71934,1.03563 3.37431,1.84063 3.67773,1.78892 0.40789,-0.0695 0.57284,-0.69113 0.6329,-2.38516 z M 338.42712,637.24176 c -19.19518,-2.1146 -35.32498,-8.4466 -50.966,-20.00771 -6.57137,-4.85668 -14.58772,-12.02505 -19.28749,-17.24585 -1.32792,-1.47525 -2.68651,-2.35437 -6.7148,-4.34493 -2.7775,-1.37255 -26.85295,-15.46733 -53.49995,-31.32212 C 181.33211,548.48664 132.96259,519.72443 100.49559,500.40939 68.028579,481.09434 39.625464,464.1889 37.374693,462.85023 l -4.093683,-2.4148 -4.600473,-6.4103 C 23.580628,446.91911 22.043336,444.00005 18.660559,435.00039 12.714772,419.18155 9.2514529,404.3258 7.3787523,386.6095 6.6639854,379.84733 6.7805326,359.35196 7.5690565,353.14284 8.9482056,342.28281 11.043372,332.51896 13.909464,323.59541 27.426228,281.51156 58.652737,247.01986 107.81664,219.86788 c 8.91372,-4.92285 12.76872,-6.11426 19.83768,-6.13185 5.36581,-0.0132 9.19617,1.1073 28.63998,8.37814 10.07,3.76551 26.91474,10.06141 37.43195,13.99097 26.92099,10.0576 65.01124,24.2968 72.63518,27.1539 3.53982,1.32635 12.06296,4.51092 18.94031,7.07657 6.87736,2.56565 18.71046,6.98707 26.29578,9.82543 7.58532,2.83832 18.14261,6.77977 23.46098,8.75909 l 9.66949,3.59848 4.48977,-0.01 c 2.46934,-0.005 7.05499,-0.18197 10.19026,-0.39219 14.88414,-0.99792 24.2002,0.0314 37.14508,4.10397 8.51689,2.67959 23.07482,9.49 29.28614,13.70068 1.77171,1.20101 5.20546,2.991 7.80892,4.07069 12.72091,5.27588 23.01451,12.20443 32.93702,22.16985 2.70038,2.71202 5.85753,6.13568 7.01601,7.60821 1.15841,1.47254 2.3187,2.67734 2.57839,2.67734 0.25972,0 1.48709,-0.52369 2.72751,-1.16373 6.84941,-3.53423 19.15105,-8.05762 28.89704,-10.62595 20.9318,-5.51569 40.93682,-7.69389 66.19915,-7.207 17.64538,0.34006 31.44607,1.40564 45.97163,3.54961 28.06036,4.14184 48.19667,10.54334 63.07309,20.05284 4.06463,2.59809 9.43227,7.14466 11.69371,9.90422 l 1.57984,1.9281 0.53191,7.55812 c 0.81249,11.54504 0.85806,11.04858 -1.35226,14.73374 -3.85426,6.42637 -6.11827,9.36761 -8.05386,10.46302 l -1.82489,1.03295 -0.005,2.13843 c -0.004,1.17615 0.18969,6.95762 0.42764,12.84775 l 0.43269,10.70933 -1.39879,4.82303 -1.39879,4.82302 -3.2973,3.69572 c -3.2484,3.64079 -3.38407,3.7413 -9.141,6.76944 -4.47433,2.35341 -5.88253,3.27025 -6.00905,3.91158 -0.0908,0.46081 -0.2456,3.59165 -0.34387,6.95725 -0.0983,3.36579 -0.51911,8.774 -0.93513,12.01816 l -0.75644,5.89855 -1.73677,2.32465 c -0.95525,1.27858 -2.59773,3.45827 -3.64996,4.84368 l -1.91316,2.51918 -6.19256,2.15162 c -20.28269,7.0475 -42.80879,11.90954 -64.30145,13.87853 -9.53599,0.87361 -27.19571,0.87105 -35.67399,-0.005 -11.60986,-1.1999 -23.31718,-3.60954 -32.74026,-6.73885 -3.66284,-1.21635 -11.92945,-4.53081 -13.77237,-5.5218 -0.53544,-0.28797 -1.14704,-0.40704 -1.35917,-0.26464 -0.2121,0.14243 -0.84408,2.32431 -1.40442,4.84865 -9.06928,40.85993 -30.11399,79.44029 -57.74405,105.8694 -13.50941,12.9208 -27.50428,22.62767 -42.5918,29.54207 -12.53849,5.7467 -32.07312,11.13082 -45.01543,12.40753 -3.71965,0.36683 -13.78671,0.44409 -16.65754,0.12786 z m -59.39536,-35.30255 c -0.125,-0.21036 -0.39278,-0.38248 -0.59505,-0.38248 -0.20228,0 -0.2655,0.17212 -0.14049,0.38248 0.125,0.21036 0.39278,0.38248 0.59505,0.38248 0.20228,0 0.2655,-0.17212 0.14049,-0.38248 z m -3.56762,-3.87869 c -0.46512,-0.71007 -1.13561,-1.63386 -1.48999,-2.05286 -1.35396,-1.60086 -3.09544,-3.86531 -3.78586,-4.92209 -0.70322,-1.07686 -2.72023,-4.21336 -3.87228,-6.02209 -2.94233,-4.6184 -9.21419,-17.47801 -10.98281,-22.51943 -2.37736,-6.77594 -4.94103,-14.76319 -5.34006,-16.63771 -0.26874,-1.26217 -0.83139,-3.60296 -1.25036,-5.20167 -1.89995,-7.25022 -3.98997,-23.32302 -4.4335,-34.09316 -0.32478,-7.88857 0.0466,-21.77705 0.68799,-25.72611 0.205,-1.26217 0.62908,-4.6184 0.94242,-7.45829 0.89177,-8.0821 3.12272,-20.62694 4.42137,-24.86095 0.29032,-0.94662 1.09478,-3.78651 1.7877,-6.31085 2.61767,-9.5359 5.36434,-17.67499 8.84164,-26.19962 1.70834,-4.18773 6.8917,-15.39963 7.86887,-17.02019 0.50734,-0.84144 1.53806,-2.7347 2.29056,-4.20723 2.80431,-5.48777 11.18251,-18.73942 15.76533,-24.93668 7.73832,-10.4634 21.8722,-25.41287 30.18093,-31.92223 0.70797,-0.55463 1.62247,-1.34092 2.03221,-1.7473 0.40973,-0.40642 1.23722,-1.06428 1.83886,-1.46198 0.60164,-0.3977 1.98965,-1.41661 3.08452,-2.26429 2.13393,-1.65211 3.46666,-2.54603 9.77798,-6.55871 5.96638,-3.79332 8.40839,-5.15271 14.23466,-7.92414 17.41037,-8.28213 33.2647,-11.94511 50.5835,-11.68694 5.46438,0.0814 7.28743,-0.10036 5.93807,-0.59184 -0.53029,-0.19315 -1.08239,-0.40091 -6.94834,-2.61507 -4.389,-1.65658 -11.42229,-3.46626 -16.91756,-4.35296 -4.69095,-0.75676 -10.55398,-0.83881 -27.08171,-0.37888 l -9.98025,0.27772 -5.83399,-2.13992 c -3.2086,-1.17695 -6.66147,-2.47309 -7.67285,-2.88027 -1.68609,-0.67886 -19.31323,-7.21809 -25.37634,-9.41351 -2.80339,-1.01524 -12.49215,-4.71057 -15.45346,-5.89395 -1.01531,-0.40573 -2.17832,-0.73768 -2.58452,-0.73768 -0.40621,0 -1.06592,-0.23847 -1.46606,-0.52993 -0.4001,-0.29145 -1.30581,-0.71236 -2.01264,-0.93534 -0.70682,-0.22299 -2.44363,-0.85751 -3.85941,-1.41 -1.41592,-0.55252 -3.65014,-1.40051 -4.96493,-1.88446 -3.23486,-1.19065 -3.7101,-1.36907 -13.60761,-5.1072 -4.75346,-1.79535 -9.47015,-3.5633 -10.48153,-3.9288 -1.67502,-0.60527 -5.38456,-1.97683 -17.46922,-6.45925 -2.32617,-0.86279 -4.47764,-1.67368 -4.78105,-1.80193 -0.30341,-0.12827 -3.03413,-1.14115 -6.06826,-2.25083 -3.03412,-1.10968 -6.42683,-2.39331 -7.53934,-2.85243 -1.11252,-0.45916 -3.18124,-1.23945 -4.59717,-1.73403 -2.92453,-1.02152 -5.05063,-1.81286 -10.29764,-3.8328 -4.97083,-1.91352 -9.08988,-3.45452 -16.73368,-6.25998 -7.23961,-2.65722 -13.62636,-5.04945 -16.3659,-6.13033 -1.01138,-0.399 -4.23859,-1.61367 -7.17158,-2.69929 -6.36946,-2.35766 -12.66573,-4.71249 -15.44647,-5.77692 -1.11251,-0.42588 -2.79606,-1.00667 -3.74135,-1.2907 -0.94514,-0.28401 -2.02088,-0.68253 -2.39053,-0.88559 -1.45686,-0.80029 -5.62545,-1.67073 -8.94681,-1.86816 -6.70193,-0.39835 -12.19573,1.4601 -22.06639,7.46478 -1.51706,0.92288 -3.75128,2.27371 -4.96493,3.00187 -1.21365,0.72816 -2.454889,1.47731 -2.758302,1.6648 -0.303412,0.18746 -1.728386,1.0281 -3.166636,1.86801 -2.337786,1.36529 -12.931637,8.64894 -15.77673,10.84703 -0.608517,0.47014 -2.428994,1.88125 -4.045504,3.13581 -14.888557,11.55498 -28.395391,25.88063 -39.061178,41.42981 -11.289898,16.45795 -19.866734,38.63009 -22.682773,58.64124 -2.215502,15.74196 -2.235766,29.74708 -0.06585,45.47642 0.711494,5.15769 2.686656,15.97029 3.144055,17.21142 0.19382,0.52591 0.594616,2.07493 0.890636,3.44229 0.814029,3.76004 4.116117,14.08545 6.296276,19.68796 3.503553,9.00272 3.642865,9.25554 10.005266,18.14658 0.966434,1.35056 2.088179,2.791 2.492729,3.20105 0.807373,0.81831 11.262315,7.27661 16.308898,10.07443 1.75071,0.97061 4.093314,2.33222 5.205828,3.02576 3.615797,2.25413 8.896798,5.41166 14.482536,8.65965 5.921514,3.44297 7.359875,4.30936 14.70651,8.85853 1.645049,1.01868 4.066834,2.45282 5.381623,3.1869 1.314789,0.73409 3.218014,1.83531 4.22939,2.44712 1.011376,0.61177 2.666356,1.56468 3.677736,2.11747 1.01138,0.55283 2.06795,1.19986 2.34794,1.43788 0.27998,0.23801 1.69444,1.12119 3.14324,1.96264 7.43674,4.31892 13.33693,7.78951 15.28208,8.98819 1.19467,0.73626 3.46383,2.09811 5.04253,3.02634 1.57874,0.92823 3.28418,1.97935 3.78991,2.33578 0.50568,0.35647 2.16066,1.33174 3.67773,2.1673 2.82813,1.55767 7.70852,4.44514 13.23983,7.83311 1.71934,1.05315 4.94655,2.95138 7.17159,4.21833 3.49524,1.99018 9.21051,5.4239 16.73367,10.05377 1.11252,0.68463 3.51223,2.07302 5.33271,3.08532 1.82048,1.0123 5.13044,2.97838 7.35546,4.36903 2.22503,1.39072 6.11423,3.71208 8.64267,5.15845 4.78252,2.73604 10.394,6.07296 13.23983,7.87327 0.91024,0.57586 2.89621,1.78211 4.41328,2.68059 6.36063,3.76704 13.15451,7.80366 14.52704,8.63172 0.8091,0.48804 2.13308,1.25915 2.94218,1.71361 0.8091,0.45445 3.20882,1.89226 5.33271,3.19509 2.12389,1.30286 5.10285,3.01949 6.61991,3.81474 1.51707,0.79524 3.00655,1.65849 3.30996,1.91834 0.30342,0.25986 1.2964,0.90261 2.20664,1.4284 0.91024,0.52579 4.25992,2.53689 7.44373,4.46923 3.18385,1.93223 8.31424,4.78325 11.40096,6.33572 5.29336,2.66234 5.78912,3.00806 8.72873,6.08826 1.71412,1.79622 3.17039,3.20989 3.23618,3.14146 0.0658,-0.0684 -0.26093,-0.70536 -0.72606,-1.41539 z m 105.62443,-7.26322 c 4.62548,-1.03881 5.94248,-1.51679 9.92988,-3.60472 3.98592,-2.08706 4.87041,-2.72886 6.65228,-4.82647 3.65856,-4.30706 6.85124,-9.79369 8.80338,-15.12884 1.641,-4.48454 1.87792,-5.57306 2.89452,-13.2987 l 1.10726,-8.41448 -0.87435,-5.11141 c -0.73286,-4.28449 -1.04631,-5.3363 -1.93724,-6.50209 -0.58462,-0.76484 -1.95189,-2.59541 -3.0384,-4.06802 -3.38226,-4.58397 -7.58421,-9.695 -13.52081,-16.44647 -3.1446,-3.57615 -6.31613,-7.19055 -7.048,-8.032 -0.73191,-0.84145 -4.04992,-4.62796 -7.37312,-8.41447 -6.88103,-7.84 -6.56842,-7.66406 -11.23877,-6.33151 -8.96741,2.55857 -19.47212,11.02831 -31.10073,25.07628 -5.55154,6.70672 -15.04045,20.35041 -15.04119,21.62749 0,1.55852 7.64564,12.17422 17.28497,23.99694 1.51706,1.86067 4.65564,5.86642 6.97445,8.90213 4.21725,5.52028 8.54116,10.20676 14.28909,15.48646 2.45245,2.25279 3.65526,3.04895 6.06825,4.01676 6.33085,2.53915 9.70333,2.75001 17.16875,1.07346 z m -78.96823,-3.01051 c 7.22931,-2.32565 13.92131,-10.13562 18.3379,-21.40145 2.4882,-6.34719 2.50924,-6.71552 0.83473,-14.606 -1.4043,-6.61722 -1.4157,-6.64858 -3.7226,-10.23927 -1.27264,-1.98111 -2.31388,-3.88519 -2.31388,-4.23133 0,-1.40484 -6.72399,-10.7231 -11.1792,-15.49182 -2.03805,-2.18156 -2.61174,-2.54828 -6.23338,-3.98463 -9.26457,-3.67399 -25.82576,-7.09226 -38.45436,-7.93715 l -3.82815,-0.25614 0.24674,3.65039 c 0.77711,11.49723 3.65379,26.28988 7.04948,36.2507 5.02047,14.7261 10.40834,24.60584 18.23308,33.43148 2.93851,3.31458 5.31837,4.44208 12.10047,5.73332 1.82342,0.34717 6.48715,-0.13246 8.93027,-0.91837 z m 17.44678,-57.65828 c 2.93778,-4.5201 6.57689,-9.59403 9.80631,-13.67352 12.31745,-15.55951 23.58234,-25.19982 33.60158,-28.75609 1.66866,-0.5923 3.03402,-1.27096 3.03413,-1.50814 1.1e-4,-0.23717 -0.95143,-1.62319 -2.11451,-3.08004 -1.16308,-1.45685 -4.59716,-5.80408 -7.63129,-9.66096 -3.03413,-3.85651 -6.50959,-8.25231 -7.72324,-9.76806 -1.21365,-1.51583 -5.70931,-7.21503 -9.98982,-12.66532 -11.33918,-14.43618 -11.91364,-15.11469 -13.75434,-16.23726 -3.22835,-1.96921 -3.9668,-2.08698 -13.03314,-2.07795 -9.59704,0.01 -13.0052,0.55903 -18.85683,3.04011 -4.83585,2.05038 -6.94908,3.51706 -10.76104,7.46861 -2.74591,2.84643 -3.84838,4.32275 -5.08483,6.80884 -3.3687,6.77289 -4.61409,12.34327 -4.63431,20.73021 -0.0191,7.88398 -0.46693,7.05668 11.58963,21.41866 4.61592,5.49848 6.37387,7.61472 19.2246,23.13981 9.83242,11.87894 14.2387,17.02019 14.58735,17.02019 0.17094,0 0.95404,-0.98966 1.74023,-2.19924 z m 260.1259,-38.32411 c 11.41825,-0.72112 25.56097,-2.72778 37.34368,-5.29882 9.23184,-2.0142 8.95491,-1.85352 9.26237,-5.37762 0.17064,-1.95743 0.0583,-2.59636 -0.76413,-4.34454 -1.98391,-4.21718 -6.86485,-6.89222 -17.15624,-9.40356 -9.11121,-2.22318 -25.53927,-3.69503 -51.85601,-4.64594 -25.86584,-0.93469 -36.06787,-2.25668 -38.72282,-5.0177 -2.26229,-2.35269 -0.13317,-2.91432 7.82989,-2.06537 18.45154,1.96711 41.29723,1.83351 61.66083,-0.36053 16.75059,-1.80498 34.35957,-5.03835 49.40664,-9.07233 3.13662,-0.84087 6.44779,-1.72719 7.35803,-1.96952 2.1834,-0.58133 2.28718,-1.45383 0.59616,-5.01197 -4.24116,-8.9247 -13.64622,-14.06747 -30.93744,-16.9173 -5.28232,-0.87059 -27.15158,-1.02557 -35.74754,-0.25332 l -6.3257,0.56825 -3.23647,-1.78781 c -4.87189,-2.69129 -4.99363,-2.95038 -1.21373,-2.58439 5.06387,0.49033 31.58987,0.34377 36.9612,-0.20424 22.14435,-2.25921 36.37055,-5.48089 55.00781,-12.45763 4.10766,-1.53779 14.23135,-6.15596 17.6487,-8.05113 2.05545,-1.13981 2.39479,-1.48224 2.55426,-2.57773 0.16104,-1.10647 0.53912,-1.47724 3.04564,-2.98672 2.95229,-1.77794 4.03373,-3.06754 7.94757,-9.47814 l 1.23178,-2.01756 -0.45136,-7.73558 -0.45141,-7.73558 -2.81089,-2.80849 c -14.67451,-14.66184 -46.05622,-24.37176 -91.25921,-28.23668 -10.06816,-0.86084 -42.72788,-0.98801 -51.12046,-0.19908 -24.35172,2.28931 -45.27286,7.57456 -62.37799,15.75802 -3.18414,1.5234 -3.71157,1.97981 -2.98908,2.58645 0.31905,0.26789 1.39306,-0.0479 3.58175,-1.05307 15.83263,-7.27125 37.2407,-12.02505 64.91195,-14.41361 9.74819,-0.84149 39.38481,-0.96499 48.72993,-0.2031 30.49795,2.48644 52.8637,7.53364 69.06778,15.58744 7.71956,3.83623 12.20161,7.26398 15.39829,11.77529 1.74391,2.46104 3.06322,6.27529 3.06322,8.85585 0,4.02097 -2.4935,9.02912 -6.29958,12.65231 -10.95008,10.42401 -36.6953,18.80597 -68.54187,22.31596 -13.92352,1.53461 -18.42249,1.74967 -36.22565,1.73162 -18.21323,-0.0184 -25.32338,-0.40309 -38.98395,-2.10875 -10.37451,-1.2954 -25.69152,-4.21641 -32.04112,-6.11005 -1.54244,-0.46004 -1.87778,-0.0945 -1.42373,1.55205 0.70992,2.57425 2.19837,11.36298 2.91343,17.20263 2.1176,17.29404 1.87189,35.2467 -0.72484,52.95764 -0.58388,3.98196 -0.63563,5.04869 -0.26351,5.43231 0.63974,0.65939 7.05977,3.57505 11.49621,5.22118 11.13838,4.13266 22.34626,6.62679 35.49011,7.89737 8.37456,0.8097 20.3121,0.96973 29.42184,0.39441 z M 263.86421,464.03396 c 2.68169,-0.55077 5.06277,-1.1962 5.29115,-1.43429 0.22839,-0.23805 0.79667,-2.21649 1.2629,-4.39656 0.84661,-3.95901 0.84687,-3.96934 0.21254,-8.75717 -1.12896,-8.52119 -3.0502,-17.49485 -3.74577,-17.49485 -0.84489,0 -5.44268,15.88768 -7.52538,26.00341 -1.17459,5.70578 -1.31762,7.08078 -0.73635,7.08078 0.20069,0 2.55904,-0.45063 5.24077,-1.00144 z m 11.89231,-18.60058 c 6.0815,-8.85738 14.84958,-14.05409 26.889,-15.93702 3.27774,-0.51263 14.9827,-0.53883 17.91128,-0.04 3.14968,0.53638 7.84497,2.93244 9.0178,4.60195 2.02827,2.88697 3.48402,4.58627 3.92892,4.58627 0.79578,0 1.39937,-4.15713 1.38834,-9.5619 -0.009,-4.39427 -0.15884,-5.73294 -1.00634,-8.98781 -0.95727,-3.67647 -2.6825,-8.12876 -3.92745,-10.136 -2.34282,-3.7771 -3.46582,-5.41892 -4.91197,-7.18099 -3.01078,-3.66821 -3.41301,-3.89475 -8.96778,-5.05289 -2.78261,-0.57999 -5.70379,-0.97535 -6.5151,-0.88184 -0.8091,0.0932 -4.53281,0.5832 -8.2749,1.0888 -3.74209,0.50559 -9.45176,1.2707 -12.68817,1.70018 -8.64708,1.14758 -8.47312,1.02519 -12.21595,8.60533 -3.59744,7.28617 -7.09213,15.68917 -7.09213,17.05308 0,0.53803 0.23394,1.74042 0.51988,2.67194 0.79906,2.60317 2.69773,11.21879 3.36538,15.27151 0.56553,3.43257 0.76254,4.20724 1.07004,4.20724 0.072,0 0.75132,-0.9036 1.50959,-2.008 z m 324.00809,-42.14887 c 34.16391,-3.02497 60.04631,-10.06486 72.60208,-19.74725 12.46309,-9.61047 7.37679,-19.85357 -14.31152,-28.81881 -11.09461,-4.58627 -28.59105,-8.61642 -46.5233,-10.71621 -14.78962,-1.73166 -19.54677,-1.96612 -39.5356,-1.94849 -18.47288,0.0165 -25.96074,0.36266 -35.90054,1.66063 -1.43612,0.18757 -3.02916,0.25787 -3.54015,0.15628 -0.73146,-0.14541 -1.27054,0.17162 -2.53476,1.49074 -3.38918,3.53626 -4.10803,4.5071 -6.22713,8.41142 -1.54182,2.8403 -2.30153,4.75226 -3.54357,8.91819 -1.1305,3.79164 -1.56763,12.25263 -0.87438,16.92304 0.45696,3.07871 2.61435,10.6118 3.55463,12.41212 0.29654,0.56775 0.78215,1.74845 1.07912,2.62382 0.71742,2.11464 3.0149,6.01253 3.80204,6.45085 0.34545,0.19227 3.7671,0.701 7.60334,1.13052 6.00721,0.67255 10.13105,1.0157 20.76705,1.72807 5.46474,0.36602 37.41355,-0.12871 43.58111,-0.67492 z" />
    <path
       style="fill:#572e18"
       inkscape:connector-curvature="0"
       id="path4027"
       d="m 491.81423,818.53774 c -51.41099,-18.4407 -89.85431,-35.86325 -114.81875,-52.03588 l -5.0396,-3.26451 -1.70727,-4.82072 c -6.4592,-18.23838 -7.52059,-33.97804 -3.09577,-45.91244 3.31566,-8.94153 10.59407,-16.72798 20.03113,-21.42861 6.28818,-3.13236 15.71384,-5.61819 22.78796,-6.00946 l 3.6917,-0.20436 17.10145,6.59809 c 9.4058,3.6289 17.45451,6.6746 17.88591,6.76869 0.63102,0.13715 1.24064,-0.45408 3.115,-3.02095 1.28173,-1.75534 4.28235,-5.55165 6.66846,-8.4359 l 4.33788,-5.24451 2.66092,-0.80867 c 1.46348,-0.44474 4.77001,-1.49101 7.34773,-2.32503 l 4.6869,-1.51637 7.08184,0.16714 c 3.89509,0.0919 17.67371,0.69454 30.61932,1.33913 26.5819,1.32356 88.97534,4.10588 99.85039,4.45279 7.78539,0.24834 11.14831,0.7975 15.08458,2.46345 10.84894,4.59162 19.69131,17.46195 23.92768,34.82866 1.2212,5.00585 1.3302,7.6958 0.4969,12.26448 -3.04262,16.68055 -13.93565,30.02858 -31.96978,39.17703 -8.32785,4.22368 -5.70085,3.98081 -27.26743,2.52143 -10.28735,-0.69614 -24.21381,-1.63631 -30.9481,-2.08931 -6.73429,-0.45297 -12.48516,-0.68318 -12.78012,-0.51152 -0.41606,0.2421 -0.53621,1.20162 -0.53621,4.28143 0,8.24389 -1.38169,13.37902 -5.20325,19.33762 -2.50674,3.90852 -7.12597,8.62751 -11.16265,11.40314 -8.24216,5.66791 -20.08262,10.01361 -32.41221,11.89615 -5.97778,0.91267 -8.17265,0.93979 -10.43336,0.12886 z m 10.00968,-5.86068 c 7.89352,-1.29101 8.41428,-1.4388 15.18278,-4.31089 6.7137,-2.84887 15.9095,-8.86847 21.7045,-14.20822 2.40755,-2.21829 4.49896,-4.25925 4.64754,-4.5354 0.14866,-0.27619 0.62691,-2.64307 1.0628,-5.25981 0.63297,-3.79945 0.74518,-5.55777 0.55725,-8.73193 -0.12942,-2.18609 -0.38223,-4.26002 -0.56181,-4.60922 -0.17955,-0.34894 -0.68248,-3.55168 -1.11756,-7.11712 -1.10762,-9.07654 -2.00499,-13.06692 -3.96974,-17.65357 l -1.69926,-3.96666 -2.77253,-1.84472 c -5.46584,-3.6367 -5.49343,-3.6497 -30.72339,-14.57387 -1.82048,-0.78821 -10.84012,-4.69834 -20.04364,-8.68909 -9.20352,-3.99076 -18.09443,-7.83044 -19.75787,-8.53305 l -3.02431,-1.27712 -3.41172,1.77503 c -13.14458,6.83867 -22.96044,21.06487 -26.73269,38.74483 -0.87537,4.10244 -1.87138,11.69383 -1.87138,14.26292 0,1.00083 -0.20687,2.10767 -0.45971,2.45971 -0.41003,0.5708 -0.61617,0.58346 -1.90702,0.11715 -0.796,-0.28755 -1.56281,-0.84753 -1.70396,-1.24443 -0.54067,-1.51992 0.80693,-12.63663 2.2468,-18.53479 3.79284,-15.53618 11.28364,-27.50883 22.53971,-36.02543 2.03864,-1.54245 2.41917,-1.98788 2.02275,-2.36772 -0.26855,-0.25729 -3.46722,-1.59878 -7.10832,-2.98105 -3.64095,-1.38227 -12.49509,-4.77484 -19.67586,-7.53899 l -13.05594,-5.02574 -3.49385,0.42222 c -10.59223,1.28007 -19.25182,4.55452 -25.98758,9.82696 -6.22235,4.87045 -10.76582,12.49779 -11.8559,19.90291 -0.68891,4.68036 -0.52117,15.63524 0.29278,19.12189 1.38702,5.94139 2.32764,9.1932 4.01756,13.88886 l 1.7207,4.78095 3.32614,2.29486 c 7.19401,4.96339 23.74196,13.96038 38.68972,21.03542 5.71998,2.70724 6.42721,2.95394 7.21351,2.51631 0.73128,-0.40703 1.07261,-0.37945 2.11715,0.17089 0.68495,0.36087 1.57635,1.06306 1.9809,1.56039 0.41897,0.51508 2.6351,1.7115 5.14883,2.77972 2.4273,1.0315 6.11643,2.67206 8.19803,3.64569 2.08152,0.97363 4.81231,2.13697 6.06825,2.58515 1.25602,0.44823 5.01422,2.0054 8.35176,3.46038 3.33754,1.45498 9.79196,4.20341 14.34315,6.10738 4.55119,1.90404 9.84713,4.15751 11.76874,5.00738 4.82445,2.13437 8.85524,3.64706 9.82579,3.68772 0.44839,0.0187 4.00652,-0.48781 7.90712,-1.12575 z m 116.38547,-43.51813 c 19.34854,-8.89525 31.81311,-24.42722 32.74578,-40.80638 0.1733,-3.04298 0.0605,-3.97011 -0.9721,-7.99375 -2.67058,-10.40565 -6.59711,-18.33668 -12.05817,-24.35761 -3.84323,-4.23708 -7.87071,-6.71629 -13.27661,-8.17314 -2.40564,-0.64829 -2.34154,-0.64596 -43.05519,-1.56329 -32.75829,-0.7381 -33.40888,-0.73596 -33.65308,0.11095 -0.35321,1.22377 -2.78025,23.12604 -3.35887,30.31124 -0.31342,3.89169 -0.66302,11.12049 -0.77692,16.064 l -0.20713,8.98819 1.66391,7.64952 c 0.91517,4.20724 1.87145,9.59479 2.12511,11.97265 0.25361,2.37774 0.63845,4.57021 0.85514,4.87236 0.31474,0.43874 6.16756,0.93508 29.08019,2.46613 15.77746,1.0543 29.18279,1.97522 29.78962,2.04652 0.60682,0.0713 2.45113,0.15719 4.09846,0.19089 2.83829,0.058 3.20485,-0.0352 6.99872,-1.77939 z M 539.2485,736.49546 c 0.11846,-8.56593 1.50956,-26.41609 3.12225,-40.06437 0.50959,-4.31242 1.02936,-8.89869 1.15506,-10.19184 l 0.22861,-2.35089 -3.45155,-0.23557 c -1.89833,-0.12958 -15.3674,-0.74701 -29.93121,-1.37202 -14.56381,-0.62504 -27.5554,-1.21073 -28.87019,-1.30149 -2.0834,-0.14381 -3.30378,0.11023 -9.49847,1.97725 l -7.10795,2.14229 -3.39455,4.04048 c -4.93367,5.87253 -7.21387,8.91628 -7.21387,9.6296 0,0.38469 0.67641,0.92911 1.74692,1.40606 1.627,0.72483 27.4675,11.95429 61.51005,26.73049 7.98987,3.46795 15.93377,7.14771 17.65311,8.17734 3.24692,1.94447 4.04109,2.22127 4.05212,1.41267 z m -198.9211,-99.3826 c -25.12295,-1.64346 -47.86934,-12.98353 -69.59002,-34.69326 -4.57253,-4.57021 -4.69941,-4.66238 -10.48154,-7.63384 -3.21919,-1.65432 -14.95549,-8.43666 -26.08062,-15.07186 -11.12514,-6.63519 -52.5842,-31.30796 -92.12716,-54.82795 C 102.5051,501.36558 61.880884,477.195 51.770802,471.17865 l -18.37615,-10.94417 -4.351491,-5.91882 C 24.247032,447.79176 22.49018,444.517 19.259662,436.07882 14.325986,423.19281 10.638325,409.1219 8.7556947,395.99914 6.4741409,380.09655 6.4615998,361.42789 8.7224113,346.58705 11.845356,326.08441 19.523907,305.76537 30.731423,288.35123 43.787368,268.06202 61.856427,249.98887 84.856588,234.21556 96.581561,226.174 112.78123,216.9196 117.96021,215.30479 c 4.95537,-1.54532 12.48663,-1.6261 18.07274,-0.19385 1.38507,0.35511 15.09598,5.34396 30.46889,11.08684 15.37292,5.74249 37.46873,13.99365 49.09771,18.33514 11.63082,4.34187 25.4499,9.5095 30.70905,11.48346 5.25916,1.97415 19.07823,7.14198 30.70905,11.48461 11.63083,4.34225 28.51161,10.64775 37.51286,14.01201 9.00124,3.36419 19.51036,7.28962 23.35359,8.72276 l 6.98769,2.60619 9.5621,-0.33521 c 5.25915,-0.18437 11.15198,-0.44551 13.09529,-0.58029 7.59305,-0.52675 20.00833,1.53793 30.65463,5.09764 8.61692,2.88136 21.6519,9.09564 27.66536,13.18967 1.58124,1.07648 5.1091,2.8893 7.83982,4.02862 8.55219,3.56785 15.74914,7.75317 22.90858,13.32241 6.6019,5.13551 10.94824,9.35307 16.53067,16.04032 1.22917,1.4725 2.45131,2.81162 2.71585,2.9757 0.28885,0.17919 1.47772,-0.22344 2.97628,-1.0079 6.44118,-3.37202 18.45118,-7.82163 28.42334,-10.53113 18.73032,-5.08885 37.04211,-7.29191 60.70095,-7.30377 49.56846,-0.0245 92.02418,8.62484 114.86657,23.40104 5.80051,3.75232 12.86028,10.29473 13.27844,12.30502 0.0932,0.44796 0.41507,4.66698 0.71536,9.37602 0.61521,9.64758 0.78847,8.6126 -2.27409,13.58555 -3.19488,5.18791 -5.55705,8.21789 -7.00571,8.98666 -2.48464,1.31825 -2.39457,0.5899 -1.77965,14.38799 l 0.55607,12.47867 -1.29964,4.46655 c -0.7148,2.45672 -1.55799,4.89727 -1.8738,5.42279 -0.31581,0.5259 -1.91297,2.3912 -3.54923,4.14528 -2.77481,2.97424 -3.36498,3.39417 -8.76734,6.23891 l -5.79243,3.0499 v 3.56946 c 0,5.36805 -1.50419,20.11671 -2.24007,21.96446 -0.62716,1.5745 -6.59527,9.21002 -7.62577,9.75582 -1.50765,0.79903 -12.84889,4.5943 -18.82042,6.29785 -44.38654,12.66417 -86.86433,13.70374 -119.15848,2.91634 -2.32617,-0.77704 -6.6486,-2.42712 -9.60587,-3.66688 -2.95704,-1.23975 -5.56036,-2.25412 -5.78543,-2.25412 -0.22493,0 -0.48973,0.38726 -0.58848,0.86057 -14.39611,69.014 -58.60096,125.50955 -112.76658,144.12849 -11.47305,3.94333 -26.74998,7.37299 -34.7564,7.80328 -2.20943,0.11875 -5.09292,0.27151 -6.40771,0.3394 -1.31478,0.0679 -4.43681,-0.0103 -6.93767,-0.17398 z m -58.58625,-32.43397 c -15.33982,-16.47516 -25.89858,-36.76973 -32.08673,-61.67428 -4.76266,-19.16779 -6.2481,-41.36479 -4.22241,-63.10856 2.5589,-27.46906 11.12661,-56.39611 24.10606,-81.3871 16.40856,-31.59444 40.39619,-58.02546 67.21421,-74.06651 15.64323,-9.35613 31.1033,-14.86417 48.39526,-17.24279 4.23454,-0.58247 18.94288,-0.81769 20.80087,-0.33267 0.50544,0.13191 0.8977,0.0664 0.8977,-0.14982 0,-0.59521 -7.93102,-3.75423 -13.63188,-5.42963 -9.51171,-2.79563 -18.20623,-4.05769 -25.35574,-3.68053 -2.32429,0.12262 -8.77727,0.32354 -14.33984,0.4465 l -10.11376,0.22356 -14.71093,-5.5417 c -8.091,-3.04799 -20.33785,-7.62887 -27.2152,-10.1796 -6.87736,-2.55081 -13.33178,-4.96875 -14.34315,-5.37341 -1.01138,-0.40466 -9.53452,-3.59546 -18.94032,-7.09072 -9.40579,-3.49526 -22.14913,-8.24848 -28.31852,-10.56246 -6.1694,-2.31414 -14.36154,-5.3868 -18.20477,-6.82873 -3.84323,-1.44155 -10.46315,-3.90929 -14.71092,-5.48394 -4.24778,-1.57451 -9.37822,-3.49025 -11.40097,-4.25735 -2.02275,-0.7669 -6.1602,-2.31195 -9.19433,-3.43337 -3.03413,-1.12146 -14.78448,-5.51492 -26.11189,-9.76347 -11.32741,-4.24854 -21.83652,-8.13029 -23.35359,-8.6256 -6.52025,-2.13032 -12.3888,-2.23221 -18.11687,-0.3146 -2.56569,0.85893 -14.09747,7.21006 -21.518767,11.85141 -49.138161,30.73272 -76.864574,69.56477 -83.547011,117.01858 -3.7612149,26.71673 0.244525,58.23965 10.811058,85.07417 2.763594,7.01882 4.173489,9.61469 8.396627,15.45777 l 4.123104,5.70464 37.512854,22.29606 c 20.63207,12.26295 38.340345,22.80438 39.351715,23.42552 1.01138,0.62121 5.31433,3.18155 9.5621,5.68971 4.24778,2.50805 36.51987,21.68946 71.71576,42.62314 35.19588,20.9356 66.39039,39.30708 69.32522,40.82168 5.25401,2.71623 5.40038,2.82673 9.92987,7.48621 4.13561,4.25466 8.36169,8.19493 8.81258,8.21673 0.0935,0.005 -0.59116,-0.80932 -1.52151,-1.80854 z m 99.43113,-13.90684 c 4.5214,-1.02408 5.90386,-1.52913 9.93208,-3.62839 4.35701,-2.27065 4.8421,-2.63687 7.0377,-5.31298 3.53783,-4.31204 6.39484,-9.28078 8.37861,-14.57272 1.64523,-4.38853 1.85567,-5.35237 2.8932,-13.24974 l 1.11891,-8.51736 -0.8781,-5.19403 -0.87809,-5.19402 -5.29924,-6.85398 c -4.51,-5.83314 -29.84479,-35.36489 -32.53027,-37.91906 -1.00895,-0.95964 -1.61349,-0.92422 -5.84207,0.34239 -12.18285,3.64928 -28.55207,19.59196 -43.30161,42.17564 -1.36646,2.09203 -2.48449,4.05425 -2.48449,4.36023 0,1.4258 10.19283,15.95997 14.52594,20.713 1.05481,1.15699 4.93,6.00908 8.61177,10.782 4.7531,6.16245 7.94059,9.88165 10.99421,12.82825 6.44338,6.21753 7.29551,6.87921 10.52419,8.17543 6.39705,2.56779 9.66876,2.77035 17.19854,1.06485 z m -81.16384,-2.44555 c 4.23159,-0.92398 7.6563,-2.93122 11.04275,-6.47264 4.6983,-4.91329 8.24216,-11.22759 10.79892,-19.24238 l 1.12712,-3.5332 -1.51736,-6.98478 c -1.41052,-6.49291 -1.64406,-7.19131 -3.3154,-9.91416 -0.98891,-1.61118 -2.03997,-3.13825 -2.33569,-3.39352 -0.29577,-0.25526 -0.53772,-0.89522 -0.53772,-1.4222 0,-1.31442 -4.6538,-8.10696 -9.10607,-13.29104 -2.65477,-3.09106 -4.09699,-4.44667 -5.43642,-5.10988 -2.56665,-1.27086 -8.40692,-3.2522 -13.59179,-4.61114 -7.79679,-2.02712 -24.19947,-4.58971 -29.42184,-4.58971 h -2.04033 v 2.08002 c 0,3.19383 1.39974,13.92519 2.62225,20.10371 4.12495,20.84724 11.355,37.54998 21.35438,49.33177 3.6429,4.29253 4.50522,4.94695 8.0535,6.11159 4.78362,1.5701 8.27526,1.84571 12.28656,0.96988 z m 22.06638,-61.54041 c 14.65907,-21.27409 29.24458,-34.9369 41.84522,-39.19998 1.6609,-0.5617 2.46474,-1.02347 2.39053,-1.37316 -0.1018,-0.47948 -4.74795,-6.42293 -31.18863,-39.89991 -8.32602,-10.54105 -8.7324,-10.98893 -11.09204,-12.22165 -2.13536,-1.11553 -3.00794,-1.32838 -6.8038,-1.65994 -9.82101,-0.85782 -19.69314,0.65468 -26.50908,4.06151 -8.44518,4.22101 -14.10263,11.26545 -16.76089,20.87058 -1.38254,4.99513 -1.86002,8.53227 -1.88444,13.96037 -0.021,4.67731 0.0374,5.09688 0.98542,7.07581 0.65934,1.37631 5.79205,7.85606 14.84479,18.74133 7.61033,9.15075 17.38905,20.9073 21.73061,26.12618 4.34156,5.21851 8.02738,9.43531 8.19141,9.37067 0.16388,-0.0647 2.07688,-2.69936 4.25109,-5.85494 z m 162.8536,-30.2378 c 1.8389,-2.1502 4.631,-7.72028 5.58647,-11.1442 1.71393,-6.14257 3.42121,-17.77252 4.19997,-28.61113 0.74647,-10.38767 0.40065,-23.42781 -0.91292,-34.42285 -0.61459,-5.14431 -2.65573,-16.29349 -3.06293,-16.73028 -0.14556,-0.15616 -1.1679,0.94709 -2.27184,2.45171 -2.47423,3.37214 -3.48752,4.17358 -5.58905,4.4199 -3.39922,0.39846 -7.72544,-1.87379 -11.68599,-6.1376 -0.90729,-0.97676 -1.79146,-1.77878 -1.96483,-1.78226 -0.17336,-0.004 -2.49034,-1.44824 -5.14882,-3.21062 -5.8406,-3.8718 -14.14897,-9.14997 -16.41849,-10.4305 -0.91024,-0.51356 -2.64797,-1.54762 -3.86162,-2.29796 -11.36713,-7.02762 -26.6573,-14.53295 -34.90314,-17.13225 -4.17238,-1.31522 -4.79061,-1.40174 -13.87644,-1.94168 -13.45167,-0.79938 -29.73777,-2.30576 -39.20829,-3.62641 -16.7848,-2.34098 -30.45014,-5.45526 -38.44332,-8.76138 -2.05126,-0.84837 -2.82564,-1.00982 -3.39333,-0.70743 -2.19292,1.16797 -13.69477,14.35662 -19.93478,22.85869 -4.15546,5.66179 -10.77428,16.06591 -10.77428,16.93604 0,0.14848 1.7972,-0.0601 9.19433,-1.0673 2.32617,-0.31673 7.42387,-1.00932 11.32778,-1.53908 l 7.09839,-0.96323 5.72549,1.16862 c 3.14909,0.64271 6.00132,1.3221 6.33857,1.50974 0.33714,0.18765 1.97604,1.81776 3.64206,3.62247 10.37414,11.23792 14.50166,26.92938 10.76802,40.9326 -0.75647,2.83717 -0.91509,2.413 2.54246,6.79928 0.91023,1.15473 4.68984,5.95401 8.3992,10.66535 6.47648,8.22591 6.81925,8.59118 8.64266,9.20428 2.82884,0.95107 10.83717,2.53161 16.11913,3.18129 4.97193,0.61154 5.21502,0.69312 15.93708,5.34931 5.8292,2.53138 9.55254,3.87831 20.22752,7.31677 3.03413,0.97738 6.50958,2.34557 7.72323,3.04042 3.52941,2.02066 8.73535,4.03512 15.63036,6.04771 4.13303,1.20652 14.59176,3.12735 23.1697,4.25543 5.16869,0.6797 20.99543,1.94519 25.68344,2.05367 2.23381,0.0517 2.37802,-0.004 3.49384,-1.30708 z m 99.1884,-4.7427 c 12.58004,-1.0655 32.90245,-4.51896 40.45504,-6.87463 1.31479,-0.41013 5.20399,-1.53453 8.64266,-2.49868 6.53901,-1.83351 14.46562,-4.33919 17.73108,-5.60518 1.64174,-0.63648 2.25243,-1.19283 4.25514,-3.8764 1.28606,-1.72336 2.47022,-3.36468 2.63141,-3.64737 0.64118,-1.12433 1.71474,-11.77147 1.92746,-19.11539 0.21298,-7.35349 0.2669,-7.80022 0.99928,-8.28405 0.42577,-0.2812 3.50488,-1.97886 6.84242,-3.77259 5.07012,-2.72484 6.45,-3.65866 8.38743,-5.67633 2.81405,-2.9303 2.77628,-2.86215 4.15069,-7.48735 0.9401,-3.16362 1.07625,-4.12807 0.90376,-6.40189 -0.11165,-1.47253 -0.38829,-7.1523 -0.61473,-12.62171 -0.22644,-5.46941 -0.43313,-10.45231 -0.45931,-11.07345 -0.043,-1.01877 0.21515,-1.2847 2.64451,-2.72503 2.84292,-1.6855 4.46918,-3.63727 7.78392,-9.3416 l 1.44468,-2.48609 -0.4845,-7.48621 c -0.37859,-5.8492 -0.62433,-7.70804 -1.12395,-8.50091 -0.92937,-1.4751 -6.14329,-5.96204 -9.7607,-8.39918 -17.25849,-11.62919 -45.33907,-18.99721 -85.13947,-22.3389 -9.93134,-0.83384 -40.63525,-0.96086 -48.72993,-0.20164 -22.85379,2.14378 -41.06922,6.35102 -57.65211,13.31667 -6.38675,2.68276 -9.28333,4.22483 -9.28333,4.94198 0,1.17928 1.18173,0.9589 5.77661,-1.07725 13.38768,-5.93259 30.92163,-10.123 53.06598,-12.68253 21.96709,-2.53891 50.81521,-2.45614 73.00296,0.20941 40.79339,4.90105 67.9755,16.34091 72.43658,30.48641 0.96324,3.05422 0.67185,6.84747 -0.77085,10.03579 -5.88069,12.99463 -32.09041,23.64276 -70.01296,28.44399 -20.85053,2.63973 -48.56076,2.93917 -70.98021,0.76705 -11.41383,-1.10578 -24.12407,-3.19842 -33.69316,-5.54705 -2.60659,-0.63981 -5.35992,-1.26278 -6.11827,-1.38441 -1.70011,-0.27263 -1.69448,-0.34522 -0.44751,5.7643 2.46791,12.0916 3.30088,21.5181 3.2823,37.14379 -0.0158,13.3771 -0.37303,18.72603 -1.96615,29.45066 -0.37502,2.52434 -0.60837,4.72281 -0.51859,4.88498 0.26225,0.47458 4.18709,2.44051 8.08659,4.05043 13.74736,5.67594 29.95181,9.17254 47.00508,10.14173 4.16944,0.23706 21.31355,-0.10939 26.29577,-0.53133 z M 264.51098,464.06957 c 2.52156,-0.52694 4.69793,-1.08444 4.83621,-1.23884 0.58248,-0.65056 1.90297,-7.34163 1.85571,-9.40318 -0.11533,-5.02841 -3.43437,-22.2406 -4.2886,-22.2406 -0.44669,0 -3.74319,10.12949 -5.34558,16.42543 -1.68433,6.61799 -3.72664,16.70503 -3.50421,17.30743 0.11761,0.31876 0.51208,0.43893 1.02656,0.31279 0.45957,-0.11264 2.89868,-0.63598 5.42024,-1.16292 z m 11.23914,-18.44415 c 7.01123,-11.00575 19.08559,-16.5551 35.97667,-16.53444 7.92992,0.01 10.24285,0.36006 13.77788,2.08724 2.53304,1.23758 3.09242,1.72229 5.37611,4.65895 3.06704,3.94409 3.22158,3.86989 3.89803,-1.87234 1.29014,-10.95297 -1.72901,-20.98876 -9.22155,-30.65202 -3.12206,-4.02671 -3.76636,-4.4088 -9.52311,-5.64879 l -4.98737,-1.07426 -8.45878,1.13446 c -4.65233,0.62397 -11.0137,1.47816 -14.13646,1.89819 -8.49593,1.14277 -8.29623,0.99589 -12.22625,8.9989 -3.69759,7.52943 -6.92112,15.15485 -6.91965,16.36922 0,0.46333 0.5062,2.90777 1.12365,5.43192 1.25687,5.13819 2.35493,10.46723 2.93531,14.24571 0.35656,2.32128 0.58811,3.15703 0.8746,3.15703 0.0606,0 0.74059,-0.98965 1.51118,-2.19923 z m 322.50022,-41.95763 c 28.70469,-2.34825 51.32273,-7.46326 66.19915,-14.97203 12.3638,-6.23972 17.10403,-12.956 13.90881,-19.70632 -5.32609,-11.25245 -32.16837,-21.29627 -67.81735,-25.37576 -14.59802,-1.6705 -20.17309,-1.95166 -38.40287,-1.93671 -16.75979,0.0138 -26.22626,0.46957 -35.78211,1.72306 -1.89984,0.24918 -2.87739,0.22528 -3.35053,-0.082 -1.14936,-0.74647 -14.77087,1.63432 -26.75402,4.67616 -8.94939,2.27179 -22.93065,7.42309 -22.93065,8.44851 0,0.19051 0.92006,1.93426 2.0446,3.87487 4.74942,8.19646 10.36752,21.32802 13.04675,30.49329 0.64563,2.2088 1.37764,4.24128 1.62673,4.51666 0.78516,0.86776 15.28686,4.34302 24.28884,5.82091 6.32827,1.0388 21.40918,2.48582 33.28347,3.1936 5.62325,0.33516 34.06865,-0.13678 40.63892,-0.67431 z" />
    <text
       xml:space="preserve"
       style="font-size:40px;font-style:normal;font-weight:bold;line-height:125%;letter-spacing:0px;word-spacing:0px;fill:#000080;fill-opacity:1;stroke:#0000ff;font-family:Sans;-inkscape-font-specification:Sans Bold"
       x="150"
       y="888.07648"
       id="text4079"
       sodipodi:linespacing="125%"><tspan
         sodipodi:role="line"
         id="tspan4081"
         x="150"
         y="888.07648" /></text>
    <a
       id="a4087">
      <text
         sodipodi:linespacing="0%"
         id="text4083"
         y="960.93359"
         x="170"
         style="font-size:72px;font-style:oblique;font-variant:normal;font-weight:bold;font-stretch:normal;line-height:0%;letter-spacing:0.64000005px;word-spacing:0px;fill:#0000ff;fill-opacity:1;stroke:none;font-family:DejaVu Sans Mono;-inkscape-font-specification:DejaVu Sans Mono Bold Oblique"
         xml:space="preserve"><tspan
           rotate="0 0 4.6999998 0"
           y="960.93359"
           x="170"
           id="tspan4085"
           sodipodi:role="line">STOCKOUT</tspan></text>
    </a>
    <a
       id="a4838"
       style="opacity:1;filter:url(#filter4894);fill:#00ffff;fill-opacity:1">
      <text
         xml:space="preserve"
         style="font-size:72px;font-style:oblique;font-variant:normal;font-weight:bold;font-stretch:normal;line-height:0%;letter-spacing:0.64000005000000004px;word-spacing:0px;fill:#00ffff;fill-opacity:1;stroke:none;font-family:DejaVu Sans Mono;-inkscape-font-specification:DejaVu Sans Mono Bold Oblique"
         x="170"
         y="960.93359"
         id="text4840"
         sodipodi:linespacing="0%"><tspan
           sodipodi:role="line"
           id="tspan4842"
           x="170"
           y="960.93359"
           rotate="0 0 4.6999998 0">STOCKOUT</tspan></text>
      <text
         sodipodi:linespacing="0%"
         id="text4844"
         y="960.93359"
         x="170"
         style="font-size:72px;font-style:oblique;font-variant:normal;font-weight:bold;font-stretch:normal;line-height:0%;letter-spacing:0.64000005000000004px;word-spacing:0px;fill:#00ffff;fill-opacity:1;stroke:none;font-family:DejaVu Sans Mono;-inkscape-font-specification:DejaVu Sans Mono Bold Oblique"
         xml:space="preserve"><tspan
           rotate="0 0 4.6999998 0"
           y="960.93359"
           x="170"
           id="tspan4846"
           sodipodi:role="line"
           style="font-style:italic;font-variant:normal;font-weight:bold;font-stretch:normal;font-family:Liberation Mono;-inkscape-font-specification:Liberation Mono Bold Italic;fill:#00ffff;fill-opacity:1">STOCKOUT</tspan></text>
    </a>
    <rect
       style="fill:#000080;fill-opacity:0;stroke:#0000ff;stroke-width:2;stroke-miterlimit:4;stroke-opacity:1;stroke-dasharray:none;stroke-dashoffset:0"
       id="rect4848"
       width="291.42856"
       height="185.71428"
       x="-751.42859"
       y="466.64789"
       ry="7.4674768" />
  </g>
</svg>
