<?xml version="1.0" encoding="UTF-8" standalone="no"?>
<!-- Created with Inkscape (http://www.inkscape.org/) -->

<svg
   xmlns:dc="http://purl.org/dc/elements/1.1/"
   xmlns:cc="http://creativecommons.org/ns#"
   xmlns:rdf="http://www.w3.org/1999/02/22-rdf-syntax-ns#"
   xmlns:svg="http://www.w3.org/2000/svg"
   xmlns="http://www.w3.org/2000/svg"
   xmlns:xlink="http://www.w3.org/1999/xlink"
   xmlns:sodipodi="http://sodipodi.sourceforge.net/DTD/sodipodi-0.dtd"
   xmlns:inkscape="http://www.inkscape.org/namespaces/inkscape"
   width="744.09448819"
   height="1052.3622047"
   id="svg2"
   version="1.1"
   inkscape:version="0.48.4 r9939"
   sodipodi:docname="logo.svg">
  <defs
     id="defs4">
    <linearGradient
       x1="164.91232"
       y1="776.50885"
       gradientTransform="translate(-3.9413,-133.68)"
       x2="273.45"
       gradientUnits="userSpaceOnUse"
       y2="757.5"
       id="linearGradient2856">
      <stop
         offset="0"
         stop-color="#fff"
         id="stop3711" />
      <stop
         offset="1"
         stop-opacity="0"
         stop-color="#fff"
         id="stop3713" />
    </linearGradient>
    <filter
       x="-.048525"
       height="1.3089"
       width="1.0971"
       y="-.15443"
       id="filter4025">
      <feGaussianBlur
         stdDeviation="9.11298"
         id="feGaussianBlur4027" />
    </filter>
    <mask
       maskUnits="userSpaceOnUse"
       id="mask4013">
      <g
         transform="matrix(1.046 0 0 1.046 -148.33 58.197)"
         id="g4015">
        <path
           d="m1114.7 638.55h97.4c39.8 0 71.8 30.2 71.8 67.71 0 37.5-32 67.7-71.8 67.7h-97.4"
           fill="#fff"
           id="path4017" />
        <path
           d="m1114.7 638.55v135.41h-189.87c-39.78 0-71.81-30.2-71.81-67.7 0-37.51 32.03-67.71 71.81-67.71h189.87z"
           fill="#bc1f2a"
           id="path4019" />
      </g>
    </mask>
    <filter
       id="filter3785">
      <feGaussianBlur
         stdDeviation="2.1528168"
         id="feGaussianBlur3787" />
    </filter>
    <filter
       x="-.59344"
       height="2.479"
       width="2.1869"
       y="-.73948"
       id="filter3769">
      <feGaussianBlur
         stdDeviation="5.9949699"
         id="feGaussianBlur3771" />
    </filter>
    <filter
       id="filter3701">
      <feGaussianBlur
         stdDeviation="4.2472285"
         id="feGaussianBlur3703" />
    </filter>
    <filter
       x="-.049502"
       height="1.5543"
       width="1.099"
       y="-.27714"
       id="filter3665">
      <feGaussianBlur
         stdDeviation="3.7749486"
         id="feGaussianBlur3667" />
    </filter>
    <linearGradient
       inkscape:collect="always"
       xlink:href="#linearGradient2856"
       id="linearGradient4275"
       gradientUnits="userSpaceOnUse"
       gradientTransform="translate(-3.9413,-133.68)"
       x1="164.91232"
       y1="776.50885"
       x2="273.45"
       y2="757.5" />
    <linearGradient
       inkscape:collect="always"
       xlink:href="#linearGradient2856"
       id="linearGradient4277"
       gradientUnits="userSpaceOnUse"
       gradientTransform="translate(-3.9413,-133.68)"
       x1="164.91232"
       y1="776.50885"
       x2="273.45"
       y2="757.5" />
    <filter
       inkscape:collect="always"
       id="filter4814">
      <feGaussianBlur
         inkscape:collect="always"
         stdDeviation="1.6775812"
         id="feGaussianBlur4816" />
    </filter>
    <filter
       inkscape:collect="always"
       id="filter4918"
       x="-0.02058405"
       width="1.0411681"
       y="-0.13040028"
       height="1.2608006">
      <feGaussianBlur
         inkscape:collect="always"
         stdDeviation="2.1231367"
         id="feGaussianBlur4920" />
    </filter>
    <filter
       inkscape:collect="always"
       id="filter4938"
       x="-0.025825005"
       width="1.05165"
       y="-0.1592905"
       height="1.318581">
      <feGaussianBlur
         inkscape:collect="always"
         stdDeviation="2.6772961"
         id="feGaussianBlur4940" />
    </filter>
  </defs>
  <sodipodi:namedview
     id="base"
     pagecolor="#ffffff"
     bordercolor="#666666"
     borderopacity="1.0"
     inkscape:pageopacity="0.0"
     inkscape:pageshadow="2"
     inkscape:zoom="1.005873"
     inkscape:cx="81.947435"
     inkscape:cy="476.15117"
     inkscape:document-units="px"
     inkscape:current-layer="layer1"
     showgrid="false"
     inkscape:window-width="1600"
     inkscape:window-height="850"
     inkscape:window-x="0"
     inkscape:window-y="26"
     inkscape:window-maximized="1"
     showguides="true"
     inkscape:guide-bbox="true" />
  <metadata
     id="metadata7">
    <rdf:RDF>
      <cc:Work
         rdf:about="">
        <dc:format>image/svg+xml</dc:format>
        <dc:type
           rdf:resource="http://purl.org/dc/dcmitype/StillImage" />
        <dc:title></dc:title>
      </cc:Work>
    </rdf:RDF>
  </metadata>
  <g
     inkscape:label="Layer 1"
     inkscape:groupmode="layer"
     id="layer1">
    <g
       id="g4232"
       transform="translate(26.842354,-160.05996)">
      <g
         id="layer1-8"
         transform="matrix(1.0931986,0,0,1,-103.40406,-486.57466)">
        <g
           id="g2813"
           transform="matrix(1.046,0,0,1.046,-24.041,-16.962)">
          <g
             id="g4074"
             transform="translate(-1.9315,206.67)">
            <g
               id="g4092"
               transform="matrix(-1,0,0,1,761.06,120.83)">
              <path
                 style="fill:#ffffff"
                 inkscape:connector-curvature="0"
                 id="path4076"
                 d="m 417.37,576.75 h 97.34 c 39.78,0 71.81,30.19 71.81,67.7 0,37.5 -32.03,67.7 -71.81,67.7 h -97.34" />
              <path
                 style="fill:#000080"
                 inkscape:connector-curvature="0"
                 id="path4078"
                 d="m 417.37,576.75 v 135.4 H 227.45 c -39.78,0 -71.81,-30.2 -71.81,-67.7 0,-37.51 32.03,-67.7 71.81,-67.7 h 189.92 z" />
              <path
                 style="opacity:0.14135999;fill:url(#linearGradient4277);filter:url(#filter3785)"
                 inkscape:connector-curvature="0"
                 id="path4080"
                 d="m 232.1,582.85 c -16.23,1.76 -29.32,7.53 -38.37,18.45 -5.73,6.92 -9.83,15.9 -12.09,27.25 -2.01,10.13 -2.54,22.14 -1.44,36.24 4.02,-9.23 7.83,-18.89 12.12,-27.57 4.05,-8.17 8.53,-15.47 14.04,-20.73 6.98,-6.66 15.62,-10.03 27.11,-7.69 l 36.04,0.47 -1.17,-24.35 -36.24,-2.07 z" />
              <rect
                 style="opacity:0.9;fill:#ffffff;filter:url(#filter3665)"
                 id="rect4082"
                 rx="5"
                 ry="5"
                 height="32.691002"
                 width="183.02"
                 y="583.01001"
                 x="243.91" />
              <path
                 style="opacity:0.25;fill:#4d4d4d;filter:url(#filter3701)"
                 inkscape:connector-curvature="0"
                 id="path4084"
                 d="m 228.39,580.61 c -3.4,0 -6.74,0.23 -10.01,0.66 0.8,-0.09 1.62,-0.15 2.42,-0.21 94.46,-0.87 188.96,0.06 283.43,-0.45 H 228.39 z m 284,0 c 1.62,0.03 3.25,0.09 4.87,0.18 1.79,-0.02 3.55,0.02 5.32,0.15 -2.29,-0.21 -4.59,-0.33 -6.93,-0.33 h -3.26 z m 25.99,3.47 c 19.98,6.54 36.3,22.22 40.31,41.34 7.03,29.31 -19.82,58.7 -51.48,62.68 -72.75,1.59 -145.56,0.55 -218.33,0.72 -27.64,-0.49 -55.29,0.71 -82.91,-0.18 -29.94,0.51 -58.27,-21.54 -61.27,-48.61 -3.35,-24.48 15.64,-47.42 40.39,-55.77 -28.27,9.08 -48.52,34.25 -48.52,64.05 0,37.51 32.04,67.7 71.82,67.7 h 287.26 c 39.78,0 71.82,-30.19 71.82,-67.7 0,-30 -20.52,-55.3 -49.09,-64.23 z" />
              <path
                 style="opacity:0.53926996;fill:#ffffff;stroke-width:1px;filter:url(#filter3769)"
                 inkscape:connector-curvature="0"
                 id="path4086"
                 d="m 179.49,836.94 c 0,0 1.78,7.7 7.52,10.45 l 25.45,12.22 c -0.23,-5.24 25.51,-6.24 29.85,-9.52 -3.8,2.23 -45.63,-2.84 -48.59,-3.64 -5.23,-1.41 -9.53,-6.2 -14.23,-9.51 z"
                 transform="matrix(0.95603,0,0,0.95603,22.866,-119.38)" />
              <path
                 style="opacity:0.26702001;fill:none;stroke:#000000;stroke-width:6;filter:url(#filter4025)"
                 inkscape:connector-curvature="0"
                 id="path4088"
                 d="m 818.06,726.12 c -41.61,0 -75.12,31.59 -75.12,70.82 0,39.23 33.51,70.81 75.12,70.81 h 300.44 c 41.6,0 75.2,-31.58 75.2,-70.81 0,-39.23 -33.6,-70.82 -75.2,-70.82 H 818.06 z"
                 mask="url(#mask4013)"
                 transform="matrix(0.95603,0,0,0.95603,-555.45,-117.44)" />
            </g>
          </g>
        </g>
      </g>
      <text
         transform="scale(1.033935,0.96717879)"
         sodipodi:linespacing="0%"
         id="text3177"
         y="568.07874"
         x="143.00414"
         style="font-size:56px;font-style:italic;font-variant:normal;font-weight:normal;font-stretch:normal;text-align:start;line-height:0%;letter-spacing:0px;word-spacing:0px;writing-mode:lr-tb;text-anchor:start;fill:#c8beb7;fill-opacity:1;stroke:none;font-family:Sans;-inkscape-font-specification:Sans Italic"
         xml:space="preserve"><tspan
           y="568.07874"
           x="143.00414"
           id="tspan3179"
           sodipodi:role="line">STOCKOUT</tspan></text>
    </g>
    <flowRoot
       xml:space="preserve"
       id="flowRoot4103"
       style="fill:black;stroke:none;stroke-opacity:1;stroke-width:1px;stroke-linejoin:miter;stroke-linecap:butt;fill-opacity:1;font-family:Sans;font-style:normal;font-weight:bold;font-size:40px;line-height:0%;letter-spacing:0px;word-spacing:0px;-inkscape-font-specification:Sans Bold"><flowRegion
         id="flowRegion4105"><rect
           id="rect4107"
           width="472.22659"
           height="62.63216"
           x="79.532898"
           y="591.07135"
           style="line-height:0%" /></flowRegion><flowPara
         id="flowPara4109"></flowPara></flowRoot>    <flowRoot
       xml:space="preserve"
       id="flowRoot4167"
       style="fill:black;stroke:none;stroke-opacity:1;stroke-width:1px;stroke-linejoin:miter;stroke-linecap:butt;fill-opacity:1;font-family:Sans;font-style:normal;font-weight:bold;font-size:40px;line-height:125%;letter-spacing:0px;word-spacing:0px;-inkscape-font-specification:Sans Bold"><flowRegion
         id="flowRegion4169"><rect
           id="rect4171"
           width="333.04404"
           height="47.719742"
           x="78.538742"
           y="606.97791" /></flowRegion><flowPara
         id="flowPara4173"></flowPara></flowRoot>    <g
       id="g4249"
       transform="matrix(1.0931986,0,0,1,-128.25809,-386.16436)">
      <g
         id="g4251"
         transform="matrix(1.046,0,0,1.046,-24.041,-16.962)">
        <g
           id="g4253"
           transform="translate(-1.9315,206.67)">
          <g
             id="g4255"
             transform="matrix(-1,0,0,1,761.06,120.83)">
            <path
               style="fill:#ffffff"
               inkscape:connector-curvature="0"
               id="path4257"
               d="m 417.37,576.75 h 97.34 c 39.78,0 71.81,30.19 71.81,67.7 0,37.5 -32.03,67.7 -71.81,67.7 h -97.34" />
            <path
               style="fill:#000080"
               inkscape:connector-curvature="0"
               id="path4259"
               d="m 417.37,576.75 v 135.4 H 227.45 c -39.78,0 -71.81,-30.2 -71.81,-67.7 0,-37.51 32.03,-67.7 71.81,-67.7 h 189.92 z" />
            <path
               style="opacity:0.14135999;fill:url(#linearGradient4275);filter:url(#filter3785)"
               inkscape:connector-curvature="0"
               id="path4261"
               d="m 232.1,582.85 c -16.23,1.76 -29.32,7.53 -38.37,18.45 -5.73,6.92 -9.83,15.9 -12.09,27.25 -2.01,10.13 -2.54,22.14 -1.44,36.24 4.02,-9.23 7.83,-18.89 12.12,-27.57 4.05,-8.17 8.53,-15.47 14.04,-20.73 6.98,-6.66 15.62,-10.03 27.11,-7.69 l 36.04,0.47 -1.17,-24.35 -36.24,-2.07 z" />
            <rect
               style="opacity:0.9;fill:#ffffff;filter:url(#filter3665)"
               id="rect4263"
               rx="5"
               ry="5"
               height="32.691002"
               width="183.02"
               y="583.01001"
               x="243.91" />
            <path
               style="opacity:0.25;fill:#4d4d4d;filter:url(#filter3701)"
               inkscape:connector-curvature="0"
               id="path4265"
               d="m 228.39,580.61 c -3.4,0 -6.74,0.23 -10.01,0.66 0.8,-0.09 1.62,-0.15 2.42,-0.21 94.46,-0.87 188.96,0.06 283.43,-0.45 H 228.39 z m 284,0 c 1.62,0.03 3.25,0.09 4.87,0.18 1.79,-0.02 3.55,0.02 5.32,0.15 -2.29,-0.21 -4.59,-0.33 -6.93,-0.33 h -3.26 z m 25.99,3.47 c 19.98,6.54 36.3,22.22 40.31,41.34 7.03,29.31 -19.82,58.7 -51.48,62.68 -72.75,1.59 -145.56,0.55 -218.33,0.72 -27.64,-0.49 -55.29,0.71 -82.91,-0.18 -29.94,0.51 -58.27,-21.54 -61.27,-48.61 -3.35,-24.48 15.64,-47.42 40.39,-55.77 -28.27,9.08 -48.52,34.25 -48.52,64.05 0,37.51 32.04,67.7 71.82,67.7 h 287.26 c 39.78,0 71.82,-30.19 71.82,-67.7 0,-30 -20.52,-55.3 -49.09,-64.23 z" />
            <path
               style="opacity:0.53926996;fill:#ffffff;stroke-width:1px;filter:url(#filter3769)"
               inkscape:connector-curvature="0"
               id="path4267"
               d="m 179.49,836.94 c 0,0 1.78,7.7 7.52,10.45 l 25.45,12.22 c -0.23,-5.24 25.51,-6.24 29.85,-9.52 -3.8,2.23 -45.63,-2.84 -48.59,-3.64 -5.23,-1.41 -9.53,-6.2 -14.23,-9.51 z"
               transform="matrix(0.95603,0,0,0.95603,22.866,-119.38)" />
            <path
               style="opacity:0.26702001;fill:none;stroke:#000000;stroke-width:6;filter:url(#filter4025)"
               inkscape:connector-curvature="0"
               id="path4269"
               d="m 818.06,726.12 c -41.61,0 -75.12,31.59 -75.12,70.82 0,39.23 33.51,70.81 75.12,70.81 h 300.44 c 41.6,0 75.2,-31.58 75.2,-70.81 0,-39.23 -33.6,-70.82 -75.2,-70.82 H 818.06 z"
               mask="url(#mask4013)"
               transform="matrix(0.95603,0,0,0.95603,-555.45,-117.44)" />
          </g>
        </g>
      </g>
    </g>
    <text
       transform="scale(1.033935,0.96717879)"
       sodipodi:linespacing="0%"
       id="text4271"
       y="839.44385"
       x="72.812325"
       style="font-size:56px;font-style:italic;font-variant:normal;font-weight:normal;font-stretch:normal;text-align:start;line-height:0%;letter-spacing:0px;word-spacing:0px;writing-mode:lr-tb;text-anchor:start;fill:#000000;fill-opacity:1;stroke:none;font-family:Sans;-inkscape-font-specification:Sans Italic;opacity:0.62030074999999996;filter:url(#filter4814)"
       xml:space="preserve"><tspan
         y="839.44385"
         x="72.812325"
         id="tspan4273"
         sodipodi:role="line">STOCKOUT</tspan></text>
    <text
       xml:space="preserve"
       style="font-size:56px;font-style:italic;font-variant:normal;font-weight:normal;font-stretch:normal;text-align:start;line-height:0%;letter-spacing:0px;word-spacing:0px;writing-mode:lr-tb;text-anchor:start;fill:#000000;fill-opacity:1;stroke:none;font-family:Sans;-inkscape-font-specification:Sans Italic"
       x="78.581512"
       y="834.30438"
       id="text4292"
       sodipodi:linespacing="0%"
       transform="scale(1.033935,0.96717879)"><tspan
         sodipodi:role="line"
         id="tspan4294"
         x="78.581512"
         y="834.30438">STOCKOUT</tspan></text>
    <rect
       style="fill:#000000;fill-opacity:1;stroke:#999999;stroke-width:2;stroke-miterlimit:4;stroke-opacity:1;stroke-dasharray:none;stroke-dashoffset:0"
       id="rect4296"
       width="76.550415"
       height="93.451157"
       x="-378.77545"
       y="379.315"
       ry="7.4674768" />
    <text
       xml:space="preserve"
       style="font-size:50.49069595000000277px;font-style:normal;font-weight:bold;line-height:125%;letter-spacing:0px;word-spacing:0px;fill:#0000ff;fill-opacity:1;stroke:none;font-family:Sans;-inkscape-font-specification:Sans Bold;filter:url(#filter4918)"
       x="145.51982"
       y="631.98035"
       id="text4818"
       sodipodi:linespacing="125%"><tspan
         sodipodi:role="line"
         id="tspan4820"
         x="145.51982"
         y="631.98035"
         style="fill:#0000ff;stroke:none">Stockout</tspan></text>
    <text
       sodipodi:linespacing="125%"
       id="text4822"
       y="639.93365"
       x="147.50815"
       style="font-size:50.49069595px;font-style:normal;font-weight:bold;line-height:125%;letter-spacing:0px;word-spacing:0px;fill:#ffffff;fill-opacity:1;stroke:#ffffff;stroke-width:1.26226735;filter:url(#filter4938);font-family:Sans;-inkscape-font-specification:Sans Bold"
       xml:space="preserve"><tspan
         style="fill:#ffffff;stroke-width:1.26226735"
         y="639.93365"
         x="147.50815"
         id="tspan4824"
         sodipodi:role="line">Stockout</tspan></text>
  </g>
</svg>
